<?xml version="1.0" encoding="UTF-8" standalone="no"?>
<!-- Created with Inkscape (http://www.inkscape.org/) -->

<svg
   xmlns:dc="http://purl.org/dc/elements/1.1/"
   xmlns:cc="http://creativecommons.org/ns#"
   xmlns:rdf="http://www.w3.org/1999/02/22-rdf-syntax-ns#"
   xmlns:svg="http://www.w3.org/2000/svg"
   xmlns="http://www.w3.org/2000/svg"
   xmlns:xlink="http://www.w3.org/1999/xlink"
   xmlns:sodipodi="http://sodipodi.sourceforge.net/DTD/sodipodi-0.dtd"
   xmlns:inkscape="http://www.inkscape.org/namespaces/inkscape"
   inkscape:export-ydpi="96"
   inkscape:export-xdpi="96"
   inkscape:export-filename="/home/toliz/Desktop/harbour-contrac.png"
   sodipodi:docname="harbour-contrac.svg"
   inkscape:version="0.92.5 (2060ec1f9f, 2020-04-08)"
   version="1.1"
   id="svg2"
   height="86"
   width="86">
  <defs
     id="defs4">
    <linearGradient
       inkscape:collect="always"
       id="linearGradient2705">
      <stop
         style="stop-color:#f2f2f2;stop-opacity:1;"
         offset="0"
         id="stop2701" />
      <stop
         style="stop-color:#e5e5e5;stop-opacity:1"
         offset="1"
         id="stop2703" />
    </linearGradient>
    <linearGradient
       inkscape:collect="always"
       id="linearGradient942">
      <stop
         style="stop-color:#ffaaaa;stop-opacity:1;"
         offset="0"
         id="stop938" />
      <stop
         style="stop-color:#e49898;stop-opacity:1"
         offset="1"
         id="stop940" />
    </linearGradient>
    <linearGradient
       inkscape:collect="always"
       xlink:href="#linearGradient942"
       id="linearGradient944"
       x1="45.82077"
       y1="4.5823927"
       x2="45.82077"
       y2="88.544022"
       gradientUnits="userSpaceOnUse" />
    <linearGradient
       inkscape:collect="always"
       xlink:href="#linearGradient2705"
       id="linearGradient2707"
       x1="40.419956"
       y1="15.904861"
       x2="40.711151"
       y2="78.96904"
       gradientUnits="userSpaceOnUse" />
  </defs>
  <sodipodi:namedview
     id="base"
     pagecolor="#ffffff"
     bordercolor="#666666"
     borderopacity="1.0"
     inkscape:pageopacity="0.0"
     inkscape:pageshadow="2"
     inkscape:zoom="10.302326"
     inkscape:cx="43"
     inkscape:cy="43"
     inkscape:document-units="px"
     inkscape:current-layer="layer2"
     showgrid="false"
     inkscape:window-width="1559"
     inkscape:window-height="1080"
     inkscape:window-x="238"
     inkscape:window-y="16"
     inkscape:window-maximized="0"
     inkscape:snap-bbox="true"
     inkscape:snap-global="true"
     inkscape:snap-grids="false">
    <inkscape:grid
       type="xygrid"
       id="grid2985"
       empspacing="5"
       visible="true"
       enabled="true"
       snapvisiblegridlinesonly="true" />
  </sodipodi:namedview>
  <metadata
     id="metadata7">
    <rdf:RDF>
      <cc:Work
         rdf:about="">
        <dc:format>image/svg+xml</dc:format>
        <dc:type
           rdf:resource="http://purl.org/dc/dcmitype/StillImage" />
        <dc:title></dc:title>
      </cc:Work>
    </rdf:RDF>
  </metadata>
  <g
     inkscape:groupmode="layer"
     id="layer2"
     inkscape:label="Ebene"
     style="display:inline"
     transform="translate(0,-4)">
    <path
       style="fill:url(#linearGradient944);fill-opacity:1;stroke:none;stroke-opacity:1"
       id="path4157"
       d="m 85.700001,47.000502 c 0,-23.58328 -19.118,-42.700504 -42.7,-42.700504 -0.408,0 -41.277002,0 -41.277002,0 -0.786,0 -1.423,0.637007 -1.423,1.423021 l 0,82.553973 c 0,0.78601 0.637,1.42301 1.423,1.42301 0,0 40.908002,0 41.277002,0 23.582,0.001 42.7,-19.11622 42.7,-42.6995 z"
       inkscape:connector-curvature="0" />
    <path
       style="color:#000000;font-style:normal;font-variant:normal;font-weight:normal;font-stretch:normal;font-size:medium;line-height:normal;font-family:sans-serif;font-variant-ligatures:normal;font-variant-position:normal;font-variant-caps:normal;font-variant-numeric:normal;font-variant-alternates:normal;font-feature-settings:normal;text-indent:0;text-align:start;text-decoration:none;text-decoration-line:none;text-decoration-style:solid;text-decoration-color:#000000;letter-spacing:normal;word-spacing:normal;text-transform:none;writing-mode:lr-tb;direction:ltr;text-orientation:mixed;dominant-baseline:auto;baseline-shift:baseline;text-anchor:start;white-space:normal;shape-padding:0;clip-rule:nonzero;display:inline;overflow:visible;visibility:visible;opacity:1;isolation:auto;mix-blend-mode:normal;color-interpolation:sRGB;color-interpolation-filters:linearRGB;solid-color:#000000;solid-opacity:1;vector-effect:none;fill:#ffffff;fill-opacity:0.25110156;fill-rule:nonzero;stroke:none;stroke-width:1.51314235;stroke-linecap:round;stroke-linejoin:miter;stroke-miterlimit:4;stroke-dasharray:none;stroke-dashoffset:0;stroke-opacity:1;color-rendering:auto;image-rendering:auto;shape-rendering:auto;text-rendering:auto;enable-background:accumulate"
       d="M 21.013672 28.310547 C 20.946972 28.310597 20.880703 28.317313 20.814453 28.320312 L 20.814453 29.835938 C 20.881253 29.830936 20.947872 29.824219 21.013672 29.824219 C 21.114142 29.824149 21.215619 29.831597 21.318359 29.841797 L 21.318359 36.041016 C 21.215609 36.051616 21.114142 36.056641 21.013672 36.056641 C 20.947872 36.056591 20.881233 36.051175 20.814453 36.046875 L 20.814453 37.560547 C 20.880753 37.563547 20.946952 37.570313 21.013672 37.570312 C 23.420192 37.572313 25.523207 35.8404 27.560547 33.96875 C 29.598107 35.84001 31.700369 37.568562 34.105469 37.570312 C 36.511999 37.572313 38.616897 35.84039 40.654297 33.96875 C 41.364237 34.62076 42.082419 35.252924 42.818359 35.802734 L 42.818359 35.884766 L 42.925781 35.884766 C 44.247051 36.854406 45.62802 37.542806 47.125 37.566406 L 47.125 36.052734 C 46.9601 36.047734 46.789901 36.026141 46.619141 35.994141 L 46.619141 29.886719 C 46.789901 29.854719 46.9601 29.832625 47.125 29.828125 L 47.125 28.314453 C 45.62163 28.338153 44.234603 29.033596 42.908203 30.009766 L 42.818359 30.009766 L 42.818359 30.078125 C 42.082429 30.627935 41.364227 31.260099 40.654297 31.912109 C 38.616887 30.040459 36.511999 28.31087 34.105469 28.3125 C 31.700369 28.3145 29.598107 30.040849 27.560547 31.912109 C 25.523207 30.040459 23.420202 28.31083 21.013672 28.3125 L 21.013672 28.310547 z M 48.123047 28.310547 C 48.056347 28.310597 47.990078 28.317313 47.923828 28.320312 L 47.923828 29.835938 C 47.990628 29.830936 48.057247 29.824219 48.123047 29.824219 C 48.223517 29.824149 48.326948 29.831597 48.429688 29.841797 L 48.429688 36.041016 C 48.326937 36.051616 48.223517 36.056641 48.123047 36.056641 C 48.057247 36.056591 47.990608 36.051175 47.923828 36.046875 L 47.923828 37.560547 C 47.990128 37.563547 48.056327 37.570313 48.123047 37.570312 C 50.529567 37.572313 52.632582 35.8404 54.669922 33.96875 C 56.707482 35.84001 58.811697 37.568562 61.216797 37.570312 C 63.623327 37.572313 65.726272 35.84039 67.763672 33.96875 C 68.473612 34.62076 69.191794 35.252924 69.927734 35.802734 L 69.927734 35.884766 L 70.035156 35.884766 C 71.356426 36.854406 72.737395 37.542806 74.234375 37.566406 L 74.234375 36.052734 C 74.069475 36.047734 73.901229 36.026141 73.730469 35.994141 L 73.730469 29.886719 C 73.901229 29.854719 74.069475 29.832625 74.234375 29.828125 L 74.234375 28.314453 C 72.731005 28.338153 71.345931 29.033596 70.019531 30.009766 L 69.927734 30.009766 L 69.927734 30.078125 C 69.191804 30.627935 68.473602 31.260099 67.763672 31.912109 C 65.726262 30.040459 63.623327 28.31087 61.216797 28.3125 C 58.811697 28.3145 56.707482 30.040849 54.669922 31.912109 C 52.632582 30.040459 50.529577 28.31083 48.123047 28.3125 L 48.123047 28.310547 z M 75.232422 28.310547 C 75.165722 28.310597 75.101406 28.317313 75.035156 28.320312 L 75.035156 29.835938 C 75.101956 29.830936 75.168575 29.824219 75.234375 29.824219 C 75.334845 29.824149 75.436324 29.831597 75.539062 29.841797 L 75.539062 36.041016 C 75.436312 36.051616 75.334845 36.056641 75.234375 36.056641 C 75.168575 36.056591 75.101936 36.051175 75.035156 36.046875 L 75.035156 37.560547 C 75.101456 37.563547 75.165702 37.570313 75.232422 37.570312 C 77.638942 37.572313 79.741957 35.8404 81.779297 33.96875 C 82.894541 34.992971 84.03102 35.963616 85.224609 36.642578 C 85.119377 35.93782 84.998609 35.237983 84.859375 34.544922 C 84.221199 34.077811 83.56687 33.536671 82.904297 32.941406 C 83.346603 32.544034 83.78204 32.180423 84.214844 31.835938 C 84.069092 31.296602 83.920037 30.759164 83.753906 30.228516 C 83.084533 30.743707 82.427628 31.316694 81.779297 31.912109 C 79.741957 30.040459 77.638952 28.31083 75.232422 28.3125 L 75.232422 28.310547 z M 6.9960938 28.3125 C 4.5909937 28.3145 2.4867787 30.040849 0.44921875 31.912109 C 0.4004371 31.867295 0.34964146 31.827833 0.30078125 31.783203 L 0.30078125 34.099609 C 0.34993089 34.054714 0.40014863 34.013829 0.44921875 33.96875 C 2.4867788 35.84001 4.5909937 37.568562 6.9960938 37.570312 C 9.4026238 37.572313 11.505569 35.84039 13.542969 33.96875 C 14.252909 34.62076 14.971091 35.252924 15.707031 35.802734 L 15.707031 35.884766 L 15.816406 35.884766 C 17.137676 36.854406 18.516692 37.542806 20.013672 37.566406 L 20.013672 36.052734 C 19.848772 36.047734 19.680526 36.026141 19.509766 35.994141 L 19.509766 29.886719 C 19.680526 29.854719 19.848772 29.832625 20.013672 29.828125 L 20.013672 28.314453 C 18.510302 28.338153 17.125228 29.033596 15.798828 30.009766 L 15.707031 30.009766 L 15.707031 30.078125 C 14.971101 30.627935 14.252899 31.260099 13.542969 31.912109 C 11.505559 30.040459 9.4026236 28.31087 6.9960938 28.3125 z M 7.3730469 29.851562 C 7.9264569 29.921062 8.5113606 30.139277 9.1191406 30.466797 L 9.1191406 35.416016 C 8.5114306 35.743566 7.9264269 35.959747 7.3730469 36.029297 L 7.3730469 29.851562 z M 34.484375 29.851562 C 35.037785 29.921062 35.622689 30.139277 36.230469 30.466797 L 36.230469 35.416016 C 35.622759 35.743566 35.037755 35.959747 34.484375 36.029297 L 34.484375 29.851562 z M 61.59375 29.851562 C 62.14716 29.921062 62.732064 30.139277 63.339844 30.466797 L 63.339844 35.416016 C 62.732134 35.743566 62.14713 35.959747 61.59375 36.029297 L 61.59375 29.851562 z M 6.3457031 29.896484 L 6.3457031 35.984375 C 5.7900431 35.868505 5.2051594 35.614076 4.5996094 35.259766 L 4.5996094 30.621094 C 5.2051694 30.266854 5.7900531 30.012334 6.3457031 29.896484 z M 33.455078 29.896484 L 33.455078 35.984375 C 32.899418 35.868505 32.314534 35.614076 31.708984 35.259766 L 31.708984 30.621094 C 32.314544 30.266854 32.899428 30.012334 33.455078 29.896484 z M 60.566406 29.896484 L 60.566406 35.984375 C 60.010746 35.868505 59.425863 35.614076 58.820312 35.259766 L 58.820312 30.621094 C 59.425872 30.266854 60.010756 30.012334 60.566406 29.896484 z M 22.347656 30.099609 C 22.907936 30.313039 23.49236 30.642738 24.09375 31.054688 L 24.09375 34.826172 C 23.49229 35.238252 22.908006 35.56776 22.347656 35.78125 L 22.347656 30.099609 z M 49.457031 30.099609 C 50.017311 30.313039 50.601735 30.642738 51.203125 31.054688 L 51.203125 34.826172 C 50.601665 35.238252 50.017381 35.56776 49.457031 35.78125 L 49.457031 30.099609 z M 76.566406 30.099609 C 77.126686 30.313039 77.71111 30.642738 78.3125 31.054688 L 78.3125 34.826172 C 77.71104 35.238252 77.126756 35.56776 76.566406 35.78125 L 76.566406 30.099609 z M 18.482422 30.214844 L 18.482422 35.666016 C 17.920512 35.418836 17.335968 35.063632 16.736328 34.632812 L 16.736328 31.248047 C 17.335978 30.817297 17.920492 30.461964 18.482422 30.214844 z M 45.591797 30.214844 L 45.591797 35.666016 C 45.029887 35.418836 44.445343 35.063632 43.845703 34.632812 L 43.845703 31.248047 C 44.445353 30.817297 45.029867 30.461964 45.591797 30.214844 z M 72.703125 30.214844 L 72.703125 35.666016 C 72.141215 35.418836 71.554718 35.063632 70.955078 34.632812 L 70.955078 31.248047 C 71.554728 30.817297 72.141195 30.461964 72.703125 30.214844 z M 10.148438 31.103516 C 10.885747 31.615286 11.645429 32.247236 12.417969 32.941406 C 11.645369 33.635646 10.885757 34.265474 10.148438 34.777344 L 10.148438 31.103516 z M 37.257812 31.103516 C 37.995123 31.615286 38.756757 32.247236 39.529297 32.941406 C 38.756697 33.635646 37.995134 34.265474 37.257812 34.777344 L 37.257812 31.103516 z M 64.367188 31.103516 C 65.104496 31.615286 65.866132 32.247236 66.638672 32.941406 C 65.866072 33.635646 65.104506 34.265474 64.367188 34.777344 L 64.367188 31.103516 z M 3.5722656 31.302734 L 3.5722656 34.578125 C 2.9207156 34.104135 2.2514687 33.549856 1.5742188 32.941406 C 2.2514387 32.332986 2.9207056 31.776644 3.5722656 31.302734 z M 30.681641 31.302734 L 30.681641 34.578125 C 30.030091 34.104135 29.360844 33.549856 28.683594 32.941406 C 29.360814 32.332986 30.030081 31.776644 30.681641 31.302734 z M 57.791016 31.302734 L 57.791016 34.578125 C 57.139466 34.104135 56.472172 33.549856 55.794922 32.941406 C 56.472142 32.332986 57.139456 31.776644 57.791016 31.302734 z M 25.121094 31.822266 C 25.554104 32.168676 25.992917 32.543656 26.435547 32.941406 C 25.992877 33.339196 25.554114 33.712134 25.121094 34.058594 L 25.121094 31.822266 z M 52.230469 31.822266 C 52.663479 32.168676 53.102292 32.543656 53.544922 32.941406 C 53.102252 33.339196 52.663489 33.712134 52.230469 34.058594 L 52.230469 31.822266 z M 79.341797 31.822266 C 79.774807 32.168676 80.211667 32.543656 80.654297 32.941406 C 80.211627 33.339196 79.774817 33.712134 79.341797 34.058594 L 79.341797 31.822266 z M 15.707031 32.048828 L 15.707031 33.833984 C 15.363111 33.550624 15.017549 33.255476 14.667969 32.941406 C 15.017539 32.627356 15.363121 32.332148 15.707031 32.048828 z M 42.818359 32.048828 L 42.818359 33.833984 C 42.474439 33.550624 42.126924 33.255476 41.777344 32.941406 C 42.126914 32.627356 42.474449 32.332148 42.818359 32.048828 z M 69.927734 32.048828 L 69.927734 33.833984 C 69.583814 33.550624 69.238252 33.255476 68.888672 32.941406 C 69.238242 32.627356 69.583824 32.332148 69.927734 32.048828 z M 0.99609375 38.371094 C 0.76088678 38.371289 0.53045204 38.399906 0.30078125 38.431641 L 0.30078125 39.96875 C 0.31537553 39.965526 0.33114881 39.958113 0.34570312 39.955078 L 0.34570312 46.042969 C 0.33114855 46.039934 0.31537577 46.032521 0.30078125 46.029297 L 0.30078125 47.568359 C 0.53045204 47.600045 0.76088678 47.628735 0.99609375 47.628906 C 3.4026238 47.630906 5.5055688 45.900937 7.5429688 44.029297 C 8.2529087 44.681307 8.9710913 45.313471 9.7070312 45.863281 L 9.7070312 45.943359 L 9.8164062 45.943359 C 11.137676 46.912999 12.516692 47.603353 14.013672 47.626953 L 14.013672 46.113281 C 13.848772 46.108281 13.680526 46.086686 13.509766 46.054688 L 13.509766 39.947266 C 13.680526 39.915266 13.848772 39.893172 14.013672 39.888672 L 14.013672 38.375 C 12.510302 38.3987 11.125228 39.092189 9.7988281 40.068359 L 9.7070312 40.068359 L 9.7070312 40.138672 C 8.9711014 40.688482 8.2528986 41.320646 7.5429688 41.972656 C 5.5055587 40.101006 3.4026237 38.369464 0.99609375 38.371094 z M 15.013672 38.371094 C 14.946972 38.371144 14.880703 38.375906 14.814453 38.378906 L 14.814453 39.894531 C 14.881253 39.889531 14.947872 39.884766 15.013672 39.884766 C 15.114142 39.884696 15.215619 39.890191 15.318359 39.900391 L 15.318359 46.099609 C 15.215609 46.110209 15.114142 46.115234 15.013672 46.115234 C 14.947872 46.115184 14.881233 46.109769 14.814453 46.105469 L 14.814453 47.621094 C 14.880753 47.624094 14.946952 47.628906 15.013672 47.628906 C 17.420192 47.630906 19.523207 45.900947 21.560547 44.029297 C 23.598107 45.900557 25.700369 47.627156 28.105469 47.628906 C 30.511999 47.630906 32.616897 45.900937 34.654297 44.029297 C 35.364237 44.681307 36.082419 45.313471 36.818359 45.863281 L 36.818359 45.943359 L 36.925781 45.943359 C 38.247051 46.912999 39.62802 47.603353 41.125 47.626953 L 41.125 46.113281 C 40.9601 46.108281 40.789901 46.086686 40.619141 46.054688 L 40.619141 39.947266 C 40.789901 39.915266 40.9601 39.893172 41.125 39.888672 L 41.125 38.375 C 39.62163 38.3987 38.234603 39.092189 36.908203 40.068359 L 36.818359 40.068359 L 36.818359 40.138672 C 36.082429 40.688482 35.364227 41.320646 34.654297 41.972656 C 32.616887 40.101006 30.511999 38.369464 28.105469 38.371094 C 25.700369 38.373094 23.598107 40.101396 21.560547 41.972656 C 19.523207 40.101006 17.420202 38.369424 15.013672 38.371094 z M 42.123047 38.371094 C 42.056347 38.371144 41.990078 38.375906 41.923828 38.378906 L 41.923828 39.894531 C 41.990628 39.889531 42.057247 39.884766 42.123047 39.884766 C 42.223517 39.884696 42.326948 39.890191 42.429688 39.900391 L 42.429688 46.099609 C 42.326937 46.110209 42.223517 46.115234 42.123047 46.115234 C 42.057247 46.115184 41.990608 46.109769 41.923828 46.105469 L 41.923828 47.621094 C 41.990128 47.624094 42.056327 47.628906 42.123047 47.628906 C 44.529567 47.630906 46.632582 45.900947 48.669922 44.029297 C 50.707482 45.900557 52.811697 47.627156 55.216797 47.628906 C 57.623327 47.630906 59.726272 45.900937 61.763672 44.029297 C 62.473612 44.681307 63.191794 45.313471 63.927734 45.863281 L 63.927734 45.943359 L 64.035156 45.943359 C 65.356426 46.912999 66.737395 47.603353 68.234375 47.626953 L 68.234375 46.113281 C 68.069475 46.108281 67.901229 46.086686 67.730469 46.054688 L 67.730469 39.947266 C 67.901229 39.915266 68.069475 39.893172 68.234375 39.888672 L 68.234375 38.375 C 66.731005 38.3987 65.345931 39.092189 64.019531 40.068359 L 63.927734 40.068359 L 63.927734 40.138672 C 63.191804 40.688482 62.473602 41.320646 61.763672 41.972656 C 59.726262 40.101006 57.623327 38.369464 55.216797 38.371094 C 52.811697 38.373094 50.707482 40.101396 48.669922 41.972656 C 46.632582 40.101006 44.529577 38.369424 42.123047 38.371094 z M 69.232422 38.371094 C 69.165722 38.371144 69.101406 38.375906 69.035156 38.378906 L 69.035156 39.894531 C 69.101956 39.889531 69.168575 39.884766 69.234375 39.884766 C 69.334845 39.884696 69.436324 39.890191 69.539062 39.900391 L 69.539062 46.099609 C 69.436312 46.110209 69.334845 46.115234 69.234375 46.115234 C 69.168575 46.115184 69.101936 46.109769 69.035156 46.105469 L 69.035156 47.621094 C 69.101456 47.624094 69.165702 47.628906 69.232422 47.628906 C 71.638942 47.630906 73.741957 45.900947 75.779297 44.029297 C 77.816857 45.900557 79.921072 47.627156 82.326172 47.628906 C 83.455085 47.629844 84.515283 47.239742 85.535156 46.642578 C 85.589477 46.00002 85.630703 45.353474 85.65625 44.703125 C 85.597517 44.745187 85.536973 44.797308 85.478516 44.837891 L 85.478516 41.162109 C 85.536972 41.202684 85.597517 41.254818 85.65625 41.296875 C 85.630686 40.646091 85.589533 40.000405 85.535156 39.357422 C 84.515285 38.75984 83.455085 38.370329 82.326172 38.371094 C 79.921072 38.373094 77.816857 40.101396 75.779297 41.972656 C 73.741957 40.101006 71.638952 38.369424 69.232422 38.371094 z M 1.3730469 39.910156 C 1.9264569 39.979656 2.5113606 40.197871 3.1191406 40.525391 L 3.1191406 45.474609 C 2.5114306 45.802159 1.9264269 46.020294 1.3730469 46.089844 L 1.3730469 39.910156 z M 28.484375 39.910156 C 29.037785 39.979656 29.622689 40.197871 30.230469 40.525391 L 30.230469 45.474609 C 29.622759 45.802159 29.037755 46.020294 28.484375 46.089844 L 28.484375 39.910156 z M 55.59375 39.910156 C 56.14716 39.979656 56.732064 40.197871 57.339844 40.525391 L 57.339844 45.474609 C 56.732134 45.802159 56.14713 46.020294 55.59375 46.089844 L 55.59375 39.910156 z M 82.703125 39.910156 C 83.256535 39.979656 83.841439 40.197871 84.449219 40.525391 L 84.449219 45.474609 C 83.841509 45.802159 83.256505 46.020294 82.703125 46.089844 L 82.703125 39.910156 z M 27.455078 39.955078 L 27.455078 46.042969 C 26.899418 45.927099 26.314534 45.672669 25.708984 45.318359 L 25.708984 40.679688 C 26.314544 40.325448 26.899428 40.070928 27.455078 39.955078 z M 54.566406 39.955078 L 54.566406 46.042969 C 54.010746 45.927099 53.425863 45.672669 52.820312 45.318359 L 52.820312 40.679688 C 53.425872 40.325448 54.010756 40.070928 54.566406 39.955078 z M 81.675781 39.955078 L 81.675781 46.042969 C 81.120121 45.927099 80.535238 45.672669 79.929688 45.318359 L 79.929688 40.679688 C 80.535246 40.325448 81.120131 40.070928 81.675781 39.955078 z M 16.347656 40.158203 C 16.907936 40.371633 17.49236 40.701331 18.09375 41.113281 L 18.09375 44.884766 C 17.49229 45.296846 16.908006 45.626354 16.347656 45.839844 L 16.347656 40.158203 z M 43.457031 40.158203 C 44.017311 40.371633 44.601735 40.701331 45.203125 41.113281 L 45.203125 44.884766 C 44.601665 45.296846 44.017381 45.626354 43.457031 45.839844 L 43.457031 40.158203 z M 70.566406 40.158203 C 71.126686 40.371633 71.71111 40.701331 72.3125 41.113281 L 72.3125 44.884766 C 71.71104 45.296846 71.126756 45.626354 70.566406 45.839844 L 70.566406 40.158203 z M 12.482422 40.273438 L 12.482422 45.726562 C 11.920512 45.479382 11.335968 45.122226 10.736328 44.691406 L 10.736328 41.308594 C 11.335978 40.877844 11.920492 40.520558 12.482422 40.273438 z M 39.591797 40.273438 L 39.591797 45.726562 C 39.029887 45.479382 38.445343 45.122226 37.845703 44.691406 L 37.845703 41.308594 C 38.445353 40.877844 39.029867 40.520558 39.591797 40.273438 z M 66.703125 40.273438 L 66.703125 45.726562 C 66.141215 45.479382 65.554718 45.122226 64.955078 44.691406 L 64.955078 41.308594 C 65.554728 40.877844 66.141195 40.520558 66.703125 40.273438 z M 4.1484375 41.162109 C 4.8857475 41.673879 5.6454288 42.30583 6.4179688 43 C 5.6453688 43.69424 4.8857575 44.326021 4.1484375 44.837891 L 4.1484375 41.162109 z M 31.257812 41.162109 C 31.995123 41.673879 32.756757 42.30583 33.529297 43 C 32.756697 43.69424 31.995133 44.326021 31.257812 44.837891 L 31.257812 41.162109 z M 58.367188 41.162109 C 59.104498 41.673879 59.866132 42.30583 60.638672 43 C 59.866072 43.69424 59.104508 44.326021 58.367188 44.837891 L 58.367188 41.162109 z M 24.681641 41.361328 L 24.681641 44.638672 C 24.030091 44.164682 23.360844 43.60845 22.683594 43 C 23.360814 42.39158 24.030081 41.835238 24.681641 41.361328 z M 51.791016 41.361328 L 51.791016 44.638672 C 51.139466 44.164682 50.472172 43.60845 49.794922 43 C 50.472142 42.39158 51.139456 41.835238 51.791016 41.361328 z M 78.902344 41.361328 L 78.902344 44.638672 C 78.250794 44.164682 77.581547 43.60845 76.904297 43 C 77.581517 42.39158 78.250784 41.835238 78.902344 41.361328 z M 19.121094 41.882812 C 19.554104 42.229222 19.992917 42.60225 20.435547 43 C 19.992877 43.39779 19.554114 43.770727 19.121094 44.117188 L 19.121094 41.882812 z M 46.230469 41.882812 C 46.663479 42.229222 47.102292 42.60225 47.544922 43 C 47.102252 43.39779 46.663489 43.770727 46.230469 44.117188 L 46.230469 41.882812 z M 73.341797 41.882812 C 73.774807 42.229222 74.211667 42.60225 74.654297 43 C 74.211627 43.39779 73.774817 43.770727 73.341797 44.117188 L 73.341797 41.882812 z M 9.7070312 42.107422 L 9.7070312 43.892578 C 9.3631113 43.609218 9.0175486 43.31407 8.6679688 43 C 9.0175386 42.68595 9.3631214 42.390742 9.7070312 42.107422 z M 36.818359 42.107422 L 36.818359 43.892578 C 36.474439 43.609218 36.126924 43.31407 35.777344 43 C 36.126914 42.68595 36.474449 42.390742 36.818359 42.107422 z M 63.927734 42.107422 L 63.927734 43.892578 C 63.583814 43.609218 63.238252 43.31407 62.888672 43 C 63.238242 42.68595 63.583824 42.390742 63.927734 42.107422 z M 4.9960938 48.429688 C 3.3095536 48.43109 1.7721796 49.28822 0.30078125 50.441406 L 0.30078125 52.431641 C 0.72934861 52.069126 1.1556284 51.722962 1.5722656 51.419922 L 1.5722656 54.697266 C 1.1556348 54.394175 0.72934973 54.048044 0.30078125 53.685547 L 0.30078125 55.677734 C 1.7721796 56.830979 3.3095536 57.688226 4.9960938 57.689453 C 7.4026238 57.691453 9.5055685 55.959531 11.542969 54.087891 C 12.252909 54.739901 12.971091 55.372065 13.707031 55.921875 L 13.707031 56.003906 L 13.816406 56.003906 C 15.137676 56.973546 16.516692 57.661947 18.013672 57.685547 L 18.013672 56.171875 C 17.848772 56.166875 17.680526 56.145281 17.509766 56.113281 L 17.509766 50.005859 C 17.680526 49.973859 17.848772 49.951766 18.013672 49.947266 L 18.013672 48.433594 C 16.510302 48.457294 15.125228 49.152736 13.798828 50.128906 L 13.707031 50.128906 L 13.707031 50.197266 C 12.971101 50.747076 12.252899 51.37924 11.542969 52.03125 C 9.5055585 50.1596 7.4026237 48.428057 4.9960938 48.429688 z M 19.013672 48.429688 C 18.946972 48.429738 18.880703 48.436453 18.814453 48.439453 L 18.814453 49.953125 C 18.881253 49.948125 18.947872 49.943359 19.013672 49.943359 C 19.114142 49.943289 19.215619 49.948784 19.318359 49.958984 L 19.318359 56.158203 C 19.215609 56.168803 19.114142 56.175781 19.013672 56.175781 C 18.947872 56.175731 18.881233 56.168363 18.814453 56.164062 L 18.814453 57.679688 C 18.880753 57.682688 18.946952 57.689453 19.013672 57.689453 C 21.420192 57.691453 23.523207 55.959541 25.560547 54.087891 C 27.598107 55.959151 29.700369 57.687703 32.105469 57.689453 C 34.511999 57.691453 36.616897 55.959531 38.654297 54.087891 C 39.364237 54.739901 40.082419 55.372065 40.818359 55.921875 L 40.818359 56.003906 L 40.925781 56.003906 C 42.247051 56.973546 43.62802 57.661947 45.125 57.685547 L 45.125 56.171875 C 44.9601 56.166875 44.789901 56.145281 44.619141 56.113281 L 44.619141 50.005859 C 44.789901 49.973859 44.9601 49.951766 45.125 49.947266 L 45.125 48.433594 C 43.62163 48.457294 42.234603 49.152736 40.908203 50.128906 L 40.818359 50.128906 L 40.818359 50.197266 C 40.082429 50.747076 39.364227 51.37924 38.654297 52.03125 C 36.616887 50.1596 34.511999 48.428057 32.105469 48.429688 C 29.700369 48.431688 27.598107 50.15999 25.560547 52.03125 C 23.523207 50.1596 21.420202 48.428018 19.013672 48.429688 z M 46.123047 48.429688 C 46.056347 48.429738 45.990078 48.436453 45.923828 48.439453 L 45.923828 49.953125 C 45.990628 49.948125 46.057247 49.943359 46.123047 49.943359 C 46.223517 49.943289 46.326948 49.948784 46.429688 49.958984 L 46.429688 56.158203 C 46.326937 56.168803 46.223517 56.175781 46.123047 56.175781 C 46.057247 56.175731 45.990608 56.168363 45.923828 56.164062 L 45.923828 57.679688 C 45.990128 57.682688 46.056327 57.689453 46.123047 57.689453 C 48.529567 57.691453 50.632582 55.959541 52.669922 54.087891 C 54.707482 55.959151 56.811697 57.687703 59.216797 57.689453 C 61.623327 57.691453 63.726272 55.959531 65.763672 54.087891 C 66.473612 54.739901 67.191794 55.372065 67.927734 55.921875 L 67.927734 56.003906 L 68.035156 56.003906 C 69.356426 56.973546 70.737395 57.661947 72.234375 57.685547 L 72.234375 56.171875 C 72.069475 56.166875 71.901229 56.145281 71.730469 56.113281 L 71.730469 50.005859 C 71.901229 49.973859 72.069475 49.951766 72.234375 49.947266 L 72.234375 48.433594 C 70.731005 48.457294 69.345931 49.152736 68.019531 50.128906 L 67.927734 50.128906 L 67.927734 50.197266 C 67.191804 50.747076 66.473602 51.37924 65.763672 52.03125 C 63.726262 50.1596 61.623327 48.428057 59.216797 48.429688 C 56.811697 48.431688 54.707482 50.15999 52.669922 52.03125 C 50.632582 50.1596 48.529577 48.428018 46.123047 48.429688 z M 73.232422 48.429688 C 73.165722 48.429738 73.101406 48.436453 73.035156 48.439453 L 73.035156 49.953125 C 73.101956 49.948125 73.168575 49.943359 73.234375 49.943359 C 73.334845 49.943289 73.436324 49.948784 73.539062 49.958984 L 73.539062 56.158203 C 73.436312 56.168803 73.334845 56.175781 73.234375 56.175781 C 73.168575 56.175731 73.101936 56.168363 73.035156 56.164062 L 73.035156 57.679688 C 73.101456 57.682688 73.165702 57.689453 73.232422 57.689453 C 75.638942 57.691453 77.741957 55.959541 79.779297 54.087891 C 80.945377 55.158799 82.135026 56.171051 83.388672 56.851562 C 83.579406 56.295317 83.761549 55.73627 83.929688 55.169922 L 83.929688 50.738281 C 84.324556 50.507291 84.707117 50.339889 85.082031 50.205078 C 85.176079 49.6519 85.257527 49.095365 85.330078 48.535156 C 83.331706 48.927035 81.530495 50.42298 79.779297 52.03125 C 77.741957 50.1596 75.638952 48.428018 73.232422 48.429688 z M 5.3730469 49.970703 C 5.9264569 50.040203 6.5113606 50.256464 7.1191406 50.583984 L 7.1191406 55.533203 C 6.5114306 55.860753 5.9264269 56.078887 5.3730469 56.148438 L 5.3730469 49.970703 z M 32.484375 49.970703 C 33.037785 50.040203 33.622689 50.256464 34.230469 50.583984 L 34.230469 55.533203 C 33.622759 55.860753 33.037755 56.078887 32.484375 56.148438 L 32.484375 49.970703 z M 59.59375 49.970703 C 60.14716 50.040203 60.732064 50.256464 61.339844 50.583984 L 61.339844 55.533203 C 60.732134 55.860753 60.14713 56.078887 59.59375 56.148438 L 59.59375 49.970703 z M 4.3457031 50.015625 L 4.3457031 56.103516 C 3.7900431 55.987646 3.2051594 55.733216 2.5996094 55.378906 L 2.5996094 50.738281 C 3.2051694 50.384041 3.7900531 50.131475 4.3457031 50.015625 z M 31.455078 50.015625 L 31.455078 56.103516 C 30.899418 55.987646 30.314534 55.733216 29.708984 55.378906 L 29.708984 50.738281 C 30.314544 50.384041 30.899428 50.131475 31.455078 50.015625 z M 58.566406 50.015625 L 58.566406 56.103516 C 58.010746 55.987646 57.425863 55.733216 56.820312 55.378906 L 56.820312 50.738281 C 57.425872 50.384041 58.010756 50.131475 58.566406 50.015625 z M 20.347656 50.21875 C 20.907936 50.43218 21.49236 50.759925 22.09375 51.171875 L 22.09375 54.945312 C 21.49229 55.357394 20.908006 55.686901 20.347656 55.900391 L 20.347656 50.21875 z M 47.457031 50.21875 C 48.017311 50.43218 48.601735 50.759925 49.203125 51.171875 L 49.203125 54.945312 C 48.601665 55.357394 48.017381 55.686901 47.457031 55.900391 L 47.457031 50.21875 z M 74.566406 50.21875 C 75.126686 50.43218 75.71111 50.759925 76.3125 51.171875 L 76.3125 54.945312 C 75.71104 55.357394 75.126756 55.686901 74.566406 55.900391 L 74.566406 50.21875 z M 16.482422 50.332031 L 16.482422 55.785156 C 15.920512 55.537976 15.335968 55.18082 14.736328 54.75 L 14.736328 51.367188 C 15.335978 50.936436 15.920492 50.579151 16.482422 50.332031 z M 43.591797 50.332031 L 43.591797 55.785156 C 43.029887 55.537976 42.445343 55.18082 41.845703 54.75 L 41.845703 51.367188 C 42.445353 50.936436 43.029867 50.579151 43.591797 50.332031 z M 70.703125 50.332031 L 70.703125 55.785156 C 70.141215 55.537976 69.554718 55.18082 68.955078 54.75 L 68.955078 51.367188 C 69.554728 50.936436 70.141195 50.579151 70.703125 50.332031 z M 8.1484375 51.220703 C 8.8857475 51.732473 9.6454285 52.364424 10.417969 53.058594 C 9.6453685 53.752834 8.8857575 54.384614 8.1484375 54.896484 L 8.1484375 51.220703 z M 35.257812 51.220703 C 35.995123 51.732473 36.756757 52.364424 37.529297 53.058594 C 36.756697 53.752834 35.995134 54.384614 35.257812 54.896484 L 35.257812 51.220703 z M 62.367188 51.220703 C 63.104498 51.732473 63.866132 52.364424 64.638672 53.058594 C 63.866072 53.752834 63.104508 54.384614 62.367188 54.896484 L 62.367188 51.220703 z M 28.681641 51.419922 L 28.681641 54.697266 C 28.030091 54.223276 27.360844 53.667044 26.683594 53.058594 C 27.360814 52.450174 28.030081 51.893832 28.681641 51.419922 z M 55.791016 51.419922 L 55.791016 54.697266 C 55.139466 54.223276 54.472172 53.667044 53.794922 53.058594 C 54.472142 52.450174 55.139456 51.893832 55.791016 51.419922 z M 82.902344 51.419922 L 82.902344 54.697266 C 82.250794 54.223276 81.581547 53.667044 80.904297 53.058594 C 81.581517 52.450174 82.250784 51.893832 82.902344 51.419922 z M 23.121094 51.941406 C 23.554104 52.287816 23.992917 52.660844 24.435547 53.058594 C 23.992877 53.456384 23.554114 53.829321 23.121094 54.175781 L 23.121094 51.941406 z M 50.230469 51.941406 C 50.663479 52.287816 51.102292 52.660844 51.544922 53.058594 C 51.102252 53.456384 50.663489 53.829321 50.230469 54.175781 L 50.230469 51.941406 z M 77.341797 51.941406 C 77.774807 52.287816 78.211667 52.660844 78.654297 53.058594 C 78.211627 53.456384 77.774817 53.829321 77.341797 54.175781 L 77.341797 51.941406 z M 13.707031 52.166016 L 13.707031 53.951172 C 13.363111 53.667812 13.017549 53.372664 12.667969 53.058594 C 13.017539 52.744544 13.363121 52.449336 13.707031 52.166016 z M 40.818359 52.166016 L 40.818359 53.951172 C 40.474439 53.667812 40.126924 53.372664 39.777344 53.058594 C 40.126914 52.744544 40.474449 52.449336 40.818359 52.166016 z M 67.927734 52.166016 L 67.927734 53.951172 C 67.583814 53.667812 67.238252 53.372664 66.888672 53.058594 C 67.238242 52.744544 67.583824 52.449336 67.927734 52.166016 z "
       transform="translate(0,4)"
       id="path1098" />
    <g
       style="display:none"
       id="Layer_2-1"
       display="none"
       transform="translate(184.22378,45.803626)" />
    <path
       id="path946"
       d="m 35.260465,13.056669 a 1.793482,3.0662758 81.818162 0 0 -0.608509,0.05071 1.793482,3.0662758 81.818162 0 0 -2.780188,2.211362 1.793482,3.0662758 81.818162 0 0 1.404425,1.241274 l 0.941427,6.550305 a 26.381544,26.381544 0 0 0 -10.873816,4.812964 l -1.435291,-1.65797 a 1.793482,3.0662758 49.090901 0 0 -0.01764,-1.874036 1.793482,3.0662758 49.090901 0 0 -3.490116,0.652606 1.793482,3.0662758 49.090901 0 0 -1.142059,3.362239 1.793482,3.0662758 49.090901 0 0 1.851987,0.284414 l 1.428678,1.649151 a 26.381544,26.381544 0 0 0 -6.294558,10.082311 l -4.149336,-1.219225 a 1.793482,3.0662758 16.363626 0 0 -1.0274119,-1.567576 1.793482,3.0662758 16.363626 0 0 -2.581759,2.436246 1.793482,3.0662758 16.363626 0 0 0.855441,3.448225 1.793482,3.0662758 16.363626 0 0 1.713089,-0.762842 l 4.2154779,1.236863 a 26.381544,26.381544 0 0 0 -0.489454,5.011392 26.381544,26.381544 0 0 0 0.762843,6.175498 l -0.630558,0.235909 c -0.539824,-0.637443 -1.172723,-0.919099 -1.710885,-0.762843 -0.949369,0.279765 -1.3338509,1.822292 -0.857646,3.446021 0.476803,1.624451 1.633569,2.7143 2.583964,2.436246 0.538286,-0.158592 0.919962,-0.738323 1.029617,-1.567576 l 0.681267,-0.25575 a 26.381544,26.381544 0 0 0 6.984641,9.965459 l -2.513413,2.899243 a 3.0662758,1.793482 40.909094 0 0 -1.851987,0.282208 3.0662758,1.793482 40.909094 0 0 1.142059,3.362241 3.0662758,1.793482 40.909094 0 0 3.490116,0.65481 3.0662758,1.793482 40.909094 0 0 0.01764,-1.87624 l 2.641288,-3.046962 a 26.381544,26.381544 0 0 0 8.699935,3.737048 c -0.787371,0.229059 -1.297541,0.680382 -1.377968,1.228043 -0.139897,0.979794 1.103163,1.96781 2.777983,2.209159 1.675727,0.241106 3.147604,-0.358263 3.289483,-1.338282 0.07511,-0.525853 -0.263212,-1.073558 -0.899537,-1.508049 a 26.381544,26.381544 0 0 0 2.123172,0.105828 26.381544,26.381544 0 0 0 8.347175,-1.388991 l 1.801279,3.944294 a 1.793482,3.0662758 65.454554 0 0 -0.511501,1.801279 1.793482,3.0662758 65.454554 0 0 3.532005,0.357169 1.793482,3.0662758 65.454554 0 0 2.043802,-2.903652 1.793482,3.0662758 65.454554 0 0 -1.697656,-0.795914 l -1.737342,-3.800986 a 26.381544,26.381544 0 0 0 9.332697,-7.826855 l 1.851989,1.18836 a 1.793482,3.0662758 32.727245 0 0 0.542368,1.792459 1.793482,3.0662758 32.727245 0 0 3.166018,-1.607261 1.793482,3.0662758 32.727245 0 0 0.149922,-3.549643 1.793482,3.0662758 32.727245 0 0 -1.858602,0.249136 l -1.823327,-1.17072 a 26.381544,26.381544 0 0 0 3.150585,-10.820903 h 0.84001 c 0.338369,0.763712 0.866084,1.213123 1.42647,1.214816 0.98973,-9.65e-4 1.791919,-1.372481 1.792461,-3.064599 1.71e-4,-1.692982 -0.802225,-3.065838 -1.792461,-3.066805 -0.561162,5.16e-4 -1.089841,0.450047 -1.428676,1.214817 H 65.478738 A 26.381544,26.381544 0 0 0 62.054765,35.957382 l 0.762842,-0.467407 c 0.69755,0.459539 1.384058,0.550685 1.856398,0.249137 0.83209,-0.535903 0.764449,-2.123647 -0.149923,-3.547439 -0.915151,-1.42432 -2.332457,-2.144014 -3.166017,-1.609466 -0.471806,0.30382 -0.672993,0.96811 -0.544573,1.794665 l -0.798118,0.489453 A 26.381544,26.381544 0 0 0 51.77623,25.83759 l 0.901743,-1.975454 a 3.0662758,1.793482 24.545441 0 0 1.697656,-0.791505 3.0662758,1.793482 24.545441 0 0 -2.041597,-2.903653 3.0662758,1.793482 24.545441 0 0 -3.53421,0.354966 3.0662758,1.793482 24.545441 0 0 0.511501,1.805688 l -0.912766,1.997501 a 26.381544,26.381544 0 0 0 -9.235688,-1.702065 26.381544,26.381544 0 0 0 -1.267729,0.04409 l -0.954657,-6.636284 a 1.793482,3.0662758 81.818162 0 0 0.998751,-1.585213 1.793482,3.0662758 81.818162 0 0 -2.678769,-1.388992 z m 0.48725,0.533549 a 0.64983257,2.3141705 81.818162 0 1 1.336078,0.392446 0.64983257,2.3141705 81.818162 0 1 -2.198134,0.974498 0.64983257,2.3141705 81.818162 0 1 -2.383333,-0.315279 0.64983257,2.3141705 81.818162 0 1 2.198133,-0.970089 0.64983257,2.3141705 81.818162 0 1 0.163152,-0.02425 0.64983257,2.3141705 81.818162 0 1 0.884104,-0.05732 z M 50.175584,20.1295 a 2.3141705,0.64983257 24.545441 0 1 1.896083,0.537959 2.3141705,0.64983257 24.545441 0 1 0.147719,0.06835 2.3141705,0.64983257 24.545441 0 1 1.686631,1.48159 2.3141705,0.64983257 24.545441 0 1 -2.374513,-0.368193 2.3141705,0.64983257 24.545441 0 1 -1.836556,-1.554347 2.3141705,0.64983257 24.545441 0 1 0.480636,-0.165357 z m -29.459839,4.259573 a 0.64983257,2.3141705 49.090901 0 1 0.205041,0.07717 0.64983257,2.3141705 49.090901 0 1 -1.322848,2.006321 0.64983257,2.3141705 49.090901 0 1 -2.176086,1.023003 0.64983257,2.3141705 49.090901 0 1 1.325053,-2.004116 0.64983257,2.3141705 49.090901 0 1 0.123466,-0.10803 0.64983257,2.3141705 49.090901 0 1 1.845374,-0.99434 z m 18.447124,4.369809 A 20.245598,20.245598 0 0 1 59.409067,49.005081 20.245598,20.245598 0 0 1 39.162869,69.25128 20.245598,20.245598 0 0 1 18.916671,49.005081 20.245598,20.245598 0 0 1 39.162869,28.758882 Z m 23.209379,2.085692 c 0.366412,0.02346 1.056584,0.687691 1.660175,1.627104 0.02984,0.04545 0.05926,0.09067 0.0882,0.136695 0.634403,1.031999 0.904167,1.97411 0.617329,2.158447 -0.301375,0.195005 -1.105573,-0.518757 -1.796868,-1.594032 -0.691691,-1.076052 -1.008305,-2.104085 -0.70552,-2.297348 0.0379,-0.02388 0.08435,-0.03421 0.136694,-0.03086 z M 8.2258481,38.217251 a 0.64983257,2.3141705 16.363626 0 1 0.06614,0.0067 0.64983257,2.3141705 16.363626 0 1 -0.02866,2.403175 0.64983257,2.3141705 16.363626 0 1 -1.274345,2.037187 0.64983257,2.3141705 16.363626 0 1 0.02866,-2.403174 0.64983257,2.3141705 16.363626 0 1 0.0463,-0.156538 0.64983257,2.3141705 16.363626 0 1 1.161901,-1.887264 z M 68.29861,46.659229 c 0.358343,0.0032 0.648324,1.038859 0.648196,2.314986 5.39e-4,0.05436 5.39e-4,0.108786 0,0.163151 -0.02425,1.21117 -0.307229,2.149648 -0.648196,2.14963 -0.35896,0.0011 -0.650184,-1.034459 -0.650401,-2.312781 -1.26e-4,-1.279186 0.291198,-2.3161 0.650401,-2.314986 z m -57.431474,8.909386 c 0.344107,-0.102193 0.913991,0.808505 1.274344,2.034983 0.360524,1.227389 0.373669,2.305331 0.02866,2.405379 -0.344732,0.09787 -0.91494,-0.814923 -1.274344,-2.039391 -0.01583,-0.05202 -0.03152,-0.104225 -0.0463,-0.156537 -0.317976,-1.168994 -0.309561,-2.14846 0.01764,-2.244434 z m 55.081213,7.917249 a 0.64983257,2.3141705 32.727245 0 1 0.132286,0.03086 0.64983257,2.3141705 32.727245 0 1 -0.705519,2.297347 0.64983257,2.3141705 32.727245 0 1 -0.0882,0.138899 0.64983257,2.3141705 32.727245 0 1 -1.708679,1.457339 0.64983257,2.3141705 32.727245 0 1 0.703315,-2.297347 0.64983257,2.3141705 32.727245 0 1 1.666789,-1.627104 z m -48.301613,9.248918 a 2.3141705,0.64983257 40.909094 0 1 1.997502,1.100168 2.3141705,0.64983257 40.909094 0 1 1.322848,2.006321 2.3141705,0.64983257 40.909094 0 1 -2.173882,-1.025208 2.3141705,0.64983257 40.909094 0 1 -0.123465,-0.108029 2.3141705,0.64983257 40.909094 0 1 -1.199382,-1.896083 2.3141705,0.64983257 40.909094 0 1 0.176379,-0.07717 z m 16.398913,3.476887 c 0.278703,0.0068 0.583201,0.03174 0.899537,0.07717 1.266185,0.181924 2.250365,0.616907 2.198134,0.972294 -0.05418,0.354236 -1.120218,0.49481 -2.383332,0.313075 -0.05389,-0.0072 -0.107216,-0.01601 -0.160946,-0.02425 -1.19539,-0.196364 -2.083523,-0.610548 -2.034983,-0.948042 0.03749,-0.266601 0.645483,-0.410614 1.48159,-0.39024 z m 19.397371,1.646946 a 0.64983257,2.3141705 65.454554 0 1 0.518115,0.165356 0.64983257,2.3141705 65.454554 0 1 -1.836554,1.552143 0.64983257,2.3141705 65.454554 0 1 -0.147718,0.06614 0.64983257,2.3141705 65.454554 0 1 -2.22459,0.304256 0.64983257,2.3141705 65.454554 0 1 1.83435,-1.552142 0.64983257,2.3141705 65.454554 0 1 1.856397,-0.535755 z"
       style="opacity:1;fill:#000000;fill-opacity:0.17777782;stroke:none;stroke-width:0.22576617;stroke-linecap:round;stroke-linejoin:miter;stroke-miterlimit:4;stroke-dasharray:none;stroke-dashoffset:0;stroke-opacity:1"
       inkscape:connector-curvature="0" />
    <path
       style="opacity:1;fill:url(#linearGradient2707);fill-opacity:1;stroke:none;stroke-width:0.22576617;stroke-linecap:round;stroke-linejoin:miter;stroke-miterlimit:4;stroke-dasharray:none;stroke-dashoffset:0;stroke-opacity:1"
       d="m 35.260465,10.799008 a 1.793482,3.0662758 81.818162 0 0 -0.608509,0.05071 1.793482,3.0662758 81.818162 0 0 -2.780188,2.211361 1.793482,3.0662758 81.818162 0 0 1.404425,1.241274 l 0.941427,6.550305 a 26.381544,26.381544 0 0 0 -10.873816,4.812965 l -1.435291,-1.657971 a 1.793482,3.0662758 49.090901 0 0 -0.01764,-1.874035 1.793482,3.0662758 49.090901 0 0 -3.490116,0.652605 1.793482,3.0662758 49.090901 0 0 -1.142058,3.36224 1.793482,3.0662758 49.090901 0 0 1.851987,0.284413 l 1.428678,1.649151 a 26.381544,26.381544 0 0 0 -6.294555,10.082312 l -4.149337,-1.219225 a 1.793482,3.0662758 16.363626 0 0 -1.0274119,-1.567576 1.793482,3.0662758 16.363626 0 0 -2.581759,2.436246 1.793482,3.0662758 16.363626 0 0 0.855442,3.448225 1.793482,3.0662758 16.363626 0 0 1.713089,-0.762843 l 4.2154769,1.236864 a 26.381544,26.381544 0 0 0 -0.489453,5.011391 26.381544,26.381544 0 0 0 0.762843,6.175499 l -0.630559,0.235908 c -0.539823,-0.637443 -1.172723,-0.919098 -1.710884,-0.762842 -0.949369,0.279765 -1.3338509,1.822292 -0.857646,3.44602 0.476802,1.624452 1.633568,2.714301 2.583964,2.436246 0.538286,-0.158592 0.919962,-0.738323 1.029617,-1.567576 l 0.681267,-0.25575 a 26.381544,26.381544 0 0 0 6.984641,9.96546 l -2.513413,2.899243 a 3.0662758,1.793482 40.909094 0 0 -1.851987,0.282208 3.0662758,1.793482 40.909094 0 0 1.142058,3.36224 3.0662758,1.793482 40.909094 0 0 3.490116,0.65481 3.0662758,1.793482 40.909094 0 0 0.01764,-1.87624 l 2.641288,-3.046961 a 26.381544,26.381544 0 0 0 8.699935,3.737047 c -0.787371,0.229059 -1.297541,0.680383 -1.377968,1.228044 -0.139897,0.979794 1.103163,1.96781 2.777983,2.209158 1.675727,0.241107 3.147604,-0.358263 3.289483,-1.338282 0.07512,-0.525852 -0.263212,-1.073558 -0.899537,-1.508048 a 26.381544,26.381544 0 0 0 2.123172,0.105828 26.381544,26.381544 0 0 0 8.347175,-1.388991 l 1.801279,3.944294 a 1.793482,3.0662758 65.454554 0 0 -0.511501,1.801278 1.793482,3.0662758 65.454554 0 0 3.532005,0.357169 1.793482,3.0662758 65.454554 0 0 2.043802,-2.903652 1.793482,3.0662758 65.454554 0 0 -1.697656,-0.795914 L 50.940631,70.34263 a 26.381544,26.381544 0 0 0 9.332697,-7.826855 l 1.851989,1.18836 a 1.793482,3.0662758 32.727245 0 0 0.542368,1.792459 1.793482,3.0662758 32.727245 0 0 3.166018,-1.607261 1.793482,3.0662758 32.727245 0 0 0.149922,-3.549644 1.793482,3.0662758 32.727245 0 0 -1.858602,0.249137 l -1.823327,-1.170721 a 26.381544,26.381544 0 0 0 3.150585,-10.820902 h 0.84001 c 0.338369,0.763711 0.866084,1.213123 1.42647,1.214816 0.98973,-9.65e-4 1.791919,-1.372481 1.792461,-3.0646 1.71e-4,-1.692982 -0.802225,-3.065838 -1.792461,-3.066804 -0.561162,5.16e-4 -1.089841,0.450047 -1.428676,1.214816 H 65.478738 A 26.381544,26.381544 0 0 0 62.054765,33.699723 l 0.762842,-0.467407 c 0.69755,0.459539 1.384058,0.550684 1.856398,0.249136 0.83209,-0.535902 0.764449,-2.123647 -0.149923,-3.547439 -0.915151,-1.424319 -2.332457,-2.144013 -3.166017,-1.609465 -0.471806,0.30382 -0.672993,0.96811 -0.544573,1.794665 l -0.798118,0.489453 A 26.381544,26.381544 0 0 0 51.77623,23.579931 l 0.901743,-1.975454 a 3.0662758,1.793482 24.545441 0 0 1.697656,-0.791505 3.0662758,1.793482 24.545441 0 0 -2.041597,-2.903653 3.0662758,1.793482 24.545441 0 0 -3.53421,0.354965 3.0662758,1.793482 24.545441 0 0 0.511501,1.805688 l -0.912766,1.997501 a 26.381544,26.381544 0 0 0 -9.235688,-1.702064 26.381544,26.381544 0 0 0 -1.267729,0.04409 l -0.954657,-6.636286 a 1.793482,3.0662758 81.818162 0 0 0.998751,-1.585214 1.793482,3.0662758 81.818162 0 0 -2.678769,-1.388991 z m 0.48725,0.533548 a 0.64983257,2.3141705 81.818162 0 1 1.336078,0.392446 0.64983257,2.3141705 81.818162 0 1 -2.198134,0.974498 0.64983257,2.3141705 81.818162 0 1 -2.383333,-0.315279 0.64983257,2.3141705 81.818162 0 1 2.198133,-0.970089 0.64983257,2.3141705 81.818162 0 1 0.163152,-0.02425 0.64983257,2.3141705 81.818162 0 1 0.884104,-0.05732 z m 14.427869,6.539282 a 2.3141705,0.64983257 24.545441 0 1 1.896083,0.537959 2.3141705,0.64983257 24.545441 0 1 0.147719,0.06835 2.3141705,0.64983257 24.545441 0 1 1.686631,1.48159 2.3141705,0.64983257 24.545441 0 1 -2.374513,-0.368193 2.3141705,0.64983257 24.545441 0 1 -1.836556,-1.554347 2.3141705,0.64983257 24.545441 0 1 0.480636,-0.165357 z m -29.459839,4.259573 a 0.64983257,2.3141705 49.090901 0 1 0.205041,0.07717 0.64983257,2.3141705 49.090901 0 1 -1.322848,2.006321 0.64983257,2.3141705 49.090901 0 1 -2.176086,1.023003 0.64983257,2.3141705 49.090901 0 1 1.325053,-2.004116 0.64983257,2.3141705 49.090901 0 1 0.123466,-0.108033 0.64983257,2.3141705 49.090901 0 1 1.845374,-0.994341 z m 18.447124,4.36981 A 20.245598,20.245598 0 0 1 59.409067,46.747419 20.245598,20.245598 0 0 1 39.162869,66.993618 20.245598,20.245598 0 0 1 18.916671,46.747419 20.245598,20.245598 0 0 1 39.162869,26.501221 Z m 23.209379,2.085692 c 0.366412,0.02345 1.056584,0.68769 1.660175,1.627103 0.02984,0.04544 0.05927,0.09067 0.08819,0.136695 0.634403,1.032 0.904168,1.974111 0.617329,2.158448 -0.301375,0.195004 -1.105573,-0.518758 -1.796868,-1.594033 -0.691691,-1.076052 -1.008304,-2.104085 -0.705519,-2.297348 0.0379,-0.02388 0.08435,-0.03422 0.136693,-0.03087 z M 8.2258481,35.959589 a 0.64983257,2.3141705 16.363626 0 1 0.06614,0.0066 0.64983257,2.3141705 16.363626 0 1 -0.02866,2.403175 0.64983257,2.3141705 16.363626 0 1 -1.274345,2.037187 0.64983257,2.3141705 16.363626 0 1 0.02866,-2.403174 0.64983257,2.3141705 16.363626 0 1 0.0463,-0.156538 0.64983257,2.3141705 16.363626 0 1 1.161901,-1.887264 z M 68.29861,44.401568 c 0.358343,0.0032 0.648324,1.038858 0.648196,2.314986 5.39e-4,0.05436 5.39e-4,0.108786 0,0.163151 -0.02424,1.21117 -0.307229,2.149647 -0.648196,2.149629 -0.35896,0.0011 -0.650184,-1.034458 -0.650401,-2.31278 -1.26e-4,-1.279187 0.291198,-2.316101 0.650401,-2.314986 z m -57.431474,8.909385 c 0.344107,-0.102197 0.913991,0.808505 1.274344,2.034983 0.360524,1.227389 0.373669,2.305331 0.02866,2.405379 -0.344733,0.09787 -0.91494,-0.814923 -1.274344,-2.039391 -0.01583,-0.05201 -0.03151,-0.104227 -0.0463,-0.156537 -0.317975,-1.168993 -0.30956,-2.14846 0.01764,-2.244434 z m 55.081213,7.917249 a 0.64983257,2.3141705 32.727245 0 1 0.132286,0.03087 0.64983257,2.3141705 32.727245 0 1 -0.705519,2.297347 0.64983257,2.3141705 32.727245 0 1 -0.08819,0.138899 0.64983257,2.3141705 32.727245 0 1 -1.708678,1.457339 0.64983257,2.3141705 32.727245 0 1 0.703315,-2.297347 0.64983257,2.3141705 32.727245 0 1 1.666788,-1.627105 z M 17.646736,70.47712 a 2.3141705,0.64983257 40.909094 0 1 1.997502,1.100169 2.3141705,0.64983257 40.909094 0 1 1.322848,2.00632 2.3141705,0.64983257 40.909094 0 1 -2.173882,-1.025207 2.3141705,0.64983257 40.909094 0 1 -0.123465,-0.108033 2.3141705,0.64983257 40.909094 0 1 -1.199382,-1.896083 2.3141705,0.64983257 40.909094 0 1 0.176379,-0.07717 z m 16.398913,3.476887 c 0.278703,0.0068 0.583201,0.03174 0.899537,0.07717 1.266185,0.181923 2.250365,0.616906 2.198134,0.972293 -0.05418,0.354236 -1.120218,0.49481 -2.383332,0.313075 -0.05389,-0.0072 -0.107214,-0.01601 -0.160946,-0.02425 -1.19539,-0.196365 -2.083523,-0.610549 -2.034983,-0.948042 0.03748,-0.266602 0.645483,-0.410614 1.48159,-0.39024 z m 19.397371,1.646946 a 0.64983257,2.3141705 65.454554 0 1 0.518115,0.165357 0.64983257,2.3141705 65.454554 0 1 -1.836554,1.552142 0.64983257,2.3141705 65.454554 0 1 -0.147718,0.06614 0.64983257,2.3141705 65.454554 0 1 -2.22459,0.304256 0.64983257,2.3141705 65.454554 0 1 1.83435,-1.552143 0.64983257,2.3141705 65.454554 0 1 1.856397,-0.535754 z"
       id="path864"
       inkscape:connector-curvature="0" />
    <g
       style="display:none"
       id="Layer_2"
       display="none"
       transform="translate(178.8847,-55.905374)" />
  </g>
</svg>
