<?xml version="1.0" encoding="UTF-8" standalone="no"?>
<!-- Created with Inkscape (http://www.inkscape.org/) -->

<svg
   xmlns:dc="http://purl.org/dc/elements/1.1/"
   xmlns:cc="http://creativecommons.org/ns#"
   xmlns:rdf="http://www.w3.org/1999/02/22-rdf-syntax-ns#"
   xmlns:svg="http://www.w3.org/2000/svg"
   xmlns="http://www.w3.org/2000/svg"
   xmlns:sodipodi="http://sodipodi.sourceforge.net/DTD/sodipodi-0.dtd"
   xmlns:inkscape="http://www.inkscape.org/namespaces/inkscape"
   width="204"
   height="326"
   viewBox="0 0 204 326.00001"
   id="svg8126"
   version="1.1"
   inkscape:version="0.92.5 (2060ec1f9f, 2020-04-08)"
   sodipodi:docname="cover-background.svg"
   style="enable-background:new">
  <defs
     id="defs8128">
    <mask
       maskUnits="userSpaceOnUse"
       id="mask5061">
      <rect
         y="399.11276"
         x="380.85715"
         height="325.526"
         width="204"
         id="rect5063"
         style="color:#000000;clip-rule:nonzero;display:inline;overflow:visible;visibility:visible;opacity:1;isolation:auto;mix-blend-mode:normal;color-interpolation:sRGB;color-interpolation-filters:linearRGB;solid-color:#000000;solid-opacity:1;fill:#ffffff;fill-opacity:1;fill-rule:nonzero;stroke:#ffffff;stroke-width:0.47400001;stroke-linecap:butt;stroke-linejoin:miter;stroke-miterlimit:4;stroke-dasharray:none;stroke-dashoffset:0;stroke-opacity:1;marker:none;color-rendering:auto;image-rendering:auto;shape-rendering:auto;text-rendering:auto;enable-background:accumulate" />
    </mask>
    <mask
       maskUnits="userSpaceOnUse"
       id="mask5065">
      <rect
         y="399.11276"
         x="380.85715"
         height="325.526"
         width="204"
         id="rect5067"
         style="color:#000000;clip-rule:nonzero;display:inline;overflow:visible;visibility:visible;opacity:1;isolation:auto;mix-blend-mode:normal;color-interpolation:sRGB;color-interpolation-filters:linearRGB;solid-color:#000000;solid-opacity:1;fill:#ffffff;fill-opacity:1;fill-rule:nonzero;stroke:#ffffff;stroke-width:0.47400001;stroke-linecap:butt;stroke-linejoin:miter;stroke-miterlimit:4;stroke-dasharray:none;stroke-dashoffset:0;stroke-opacity:1;marker:none;color-rendering:auto;image-rendering:auto;shape-rendering:auto;text-rendering:auto;enable-background:accumulate" />
    </mask>
    <mask
       maskUnits="userSpaceOnUse"
       id="mask5069">
      <rect
         y="399.11276"
         x="380.85715"
         height="325.526"
         width="204"
         id="rect5071"
         style="color:#000000;clip-rule:nonzero;display:inline;overflow:visible;visibility:visible;opacity:1;isolation:auto;mix-blend-mode:normal;color-interpolation:sRGB;color-interpolation-filters:linearRGB;solid-color:#000000;solid-opacity:1;fill:#ffffff;fill-opacity:1;fill-rule:nonzero;stroke:#ffffff;stroke-width:0.47400001;stroke-linecap:butt;stroke-linejoin:miter;stroke-miterlimit:4;stroke-dasharray:none;stroke-dashoffset:0;stroke-opacity:1;marker:none;color-rendering:auto;image-rendering:auto;shape-rendering:auto;text-rendering:auto;enable-background:accumulate" />
    </mask>
    <filter
       inkscape:collect="always"
       style="color-interpolation-filters:sRGB"
       id="filter5082">
      <feBlend
         inkscape:collect="always"
         mode="exclusion"
         in2="BackgroundImage"
         id="feBlend5084" />
    </filter>
  </defs>
  <sodipodi:namedview
     id="base"
     pagecolor="#ffffff"
     bordercolor="#666666"
     borderopacity="1.0"
     inkscape:pageopacity="0.0"
     inkscape:pageshadow="2"
     inkscape:zoom="3.959798"
     inkscape:cx="40.674151"
     inkscape:cy="169.37611"
     inkscape:document-units="px"
     inkscape:current-layer="layer1"
     showgrid="false"
     fit-margin-top="0"
     fit-margin-left="0"
     fit-margin-right="0"
     fit-margin-bottom="0"
     units="px"
     inkscape:window-width="3840"
     inkscape:window-height="2336"
     inkscape:window-x="0"
     inkscape:window-y="27"
     inkscape:window-maximized="1"
     inkscape:pagecheckerboard="true" />
  <metadata
     id="metadata8131">
    <rdf:RDF>
      <cc:Work
         rdf:about="">
        <dc:format>image/svg+xml</dc:format>
        <dc:type
           rdf:resource="http://purl.org/dc/dcmitype/StillImage" />
        <dc:title />
      </cc:Work>
    </rdf:RDF>
  </metadata>
  <g
     inkscape:label="Watermark"
     inkscape:groupmode="layer"
     id="layer1"
     transform="translate(-380.85714,-305.32592)"
     style="display:inline">
    <g
       id="g4826"
       mask="none"
       transform="translate(0,-96.204979)">
      <path
         inkscape:connector-curvature="0"
         id="path864"
         d="m 358.65765,318.9162 a 7.9782172,13.640178 81.818162 0 0 -2.70688,0.22554 7.9782172,13.640178 81.818162 0 0 -12.36756,9.83714 7.9782172,13.640178 81.818162 0 0 6.24749,5.52171 l 4.18791,29.13873 a 117.35701,117.35701 0 0 0 -48.37165,21.41022 l -6.38482,-7.3754 a 7.9782172,13.640178 49.090901 0 0 -0.0783,-8.33653 7.9782172,13.640178 49.090901 0 0 -15.52558,2.90307 7.9782172,13.640178 49.090901 0 0 -5.08041,14.95675 7.9782172,13.640178 49.090901 0 0 8.23848,1.26523 l 6.35537,7.33618 a 117.35701,117.35701 0 0 0 -28.001,44.85065 l -18.45813,-5.42368 a 7.9782172,13.640178 16.363626 0 0 -4.57038,-6.97326 7.9782172,13.640178 16.363626 0 0 -11.48483,10.8375 7.9782172,13.640178 16.363626 0 0 3.80538,15.33928 7.9782172,13.640178 16.363626 0 0 7.6206,-3.39351 l 18.75236,5.50217 a 117.35701,117.35701 0 0 0 -2.17729,22.29292 117.35701,117.35701 0 0 0 3.39345,27.47141 l -2.80502,1.04944 c -2.40136,-2.83567 -5.21679,-4.08858 -7.61077,-3.39351 -4.22323,1.24454 -5.93359,8.10642 -3.81521,15.3295 2.12102,7.22629 7.26686,12.07444 11.49463,10.8375 2.39455,-0.70549 4.09243,-3.28438 4.58021,-6.97331 l 3.03059,-1.13769 a 117.35701,117.35701 0 0 0 31.07083,44.33086 l -11.18079,12.89717 a 13.640178,7.9782172 40.909094 0 0 -8.23848,1.2554 13.640178,7.9782172 40.909094 0 0 5.08041,14.95676 13.640178,7.9782172 40.909094 0 0 15.52558,2.9129 13.640178,7.9782172 40.909094 0 0 0.0783,-8.34636 l 11.74965,-13.55431 a 117.35701,117.35701 0 0 0 38.70125,16.6241 c -3.50262,1.01895 -5.77209,3.02662 -6.12983,5.46291 -0.62233,4.35855 4.90737,8.7537 12.35772,9.8273 7.4544,1.07256 14.00194,-1.5937 14.63309,-5.95328 0.33408,-2.33922 -1.17087,-4.77568 -4.00152,-6.70848 a 117.35701,117.35701 0 0 0 9.44481,0.47077 117.35701,117.35701 0 0 0 37.13198,-6.17885 l 8.01291,17.54598 a 7.9782172,13.640178 65.454554 0 0 -2.27538,8.0129 7.9782172,13.640178 65.454554 0 0 15.71197,1.58886 7.9782172,13.640178 65.454554 0 0 9.09175,-12.91675 7.9782172,13.640178 65.454554 0 0 -7.55195,-3.54056 l -7.72848,-16.90852 a 117.35701,117.35701 0 0 0 41.51606,-34.81737 l 8.23849,5.28632 a 7.9782172,13.640178 32.727245 0 0 2.41266,7.97369 7.9782172,13.640178 32.727245 0 0 14.08389,-7.14984 7.9782172,13.640178 32.727245 0 0 0.66691,-15.79039 7.9782172,13.640178 32.727245 0 0 -8.2679,1.10829 l -8.11095,-5.2079 a 117.35701,117.35701 0 0 0 14.01521,-48.13628 h 3.73674 c 1.50522,3.39732 3.85271,5.39655 6.34557,5.40406 4.40278,-0.003 7.9713,-6.10541 7.97373,-13.63272 6e-4,-7.53113 -3.56872,-13.63823 -7.97373,-13.64255 -2.49628,0.001 -4.84809,2.00203 -6.35541,5.40407 h -3.60919 a 117.35701,117.35701 0 0 0 -15.23142,-49.80357 l 3.39351,-2.0792 c 3.10301,2.04417 6.15687,2.44966 8.25806,1.10822 3.70151,-2.38392 3.40062,-9.44695 -0.66692,-15.7806 -4.071,-6.33604 -10.37583,-9.53754 -14.08388,-7.15961 -2.09878,1.35152 -2.99377,4.30659 -2.4225,7.98346 l -3.55039,2.17733 a 117.35701,117.35701 0 0 0 -36.65141,-31.26701 l 4.01135,-8.78769 a 13.640178,7.9782172 24.545441 0 0 7.55195,-3.52099 13.640178,7.9782172 24.545441 0 0 -9.08196,-12.91674 13.640178,7.9782172 24.545441 0 0 -15.72176,1.579 13.640178,7.9782172 24.545441 0 0 2.27538,8.03253 l -4.06036,8.88578 a 117.35701,117.35701 0 0 0 -41.08453,-7.57152 117.35701,117.35701 0 0 0 -5.63943,0.19617 l -4.24675,-29.52121 a 7.9782172,13.640178 81.818162 0 0 4.44289,-7.05171 7.9782172,13.640178 81.818162 0 0 -11.91637,-6.17887 z m 2.1675,2.37347 a 2.8907485,10.294475 81.818162 0 1 5.94348,1.74576 2.8907485,10.294475 81.818162 0 1 -9.77827,4.33501 2.8907485,10.294475 81.818162 0 1 -10.60213,-1.40252 2.8907485,10.294475 81.818162 0 1 9.77828,-4.31538 2.8907485,10.294475 81.818162 0 1 0.72576,-0.10764 2.8907485,10.294475 81.818162 0 1 3.93288,-0.2549 z m 64.18167,29.08966 a 10.294475,2.8907485 24.545441 0 1 8.43467,2.39309 10.294475,2.8907485 24.545441 0 1 0.65711,0.30427 10.294475,2.8907485 24.545441 0 1 7.5029,6.59079 10.294475,2.8907485 24.545441 0 1 -10.56294,-1.63792 10.294475,2.8907485 24.545441 0 1 -8.16979,-6.9144 10.294475,2.8907485 24.545441 0 1 2.13805,-0.7356 z m -131.05066,18.94851 a 2.8907485,10.294475 49.090901 0 1 0.91211,0.3434 2.8907485,10.294475 49.090901 0 1 -5.88458,8.92502 2.8907485,10.294475 49.090901 0 1 -9.68023,4.55076 2.8907485,10.294475 49.090901 0 1 5.89442,-8.91517 2.8907485,10.294475 49.090901 0 1 0.54924,-0.48058 2.8907485,10.294475 49.090901 0 1 8.20904,-4.42331 z m 82.06115,19.43887 a 90.061557,90.061557 0 0 1 90.06424,90.06424 90.061557,90.061557 0 0 1 -90.06424,90.06423 90.061557,90.061557 0 0 1 -90.06423,-90.06423 90.061557,90.061557 0 0 1 90.06423,-90.06424 z m 103.2458,9.27809 c 1.62996,0.10451 4.70015,3.05917 7.38519,7.23811 0.13257,0.20199 0.26379,0.40349 0.39235,0.60807 2.8221,4.59079 4.02216,8.78173 2.74616,9.60175 -1.34061,0.86746 -4.91806,-2.30767 -7.99328,-7.09095 -3.07695,-4.78681 -4.48538,-9.35994 -3.13849,-10.21966 0.16861,-0.1063 0.37502,-0.15212 0.60813,-0.13745 z m -240.86762,32.79702 a 2.8907485,10.294475 16.363626 0 1 0.29405,0.0311 2.8907485,10.294475 16.363626 0 1 -0.12767,10.69039 2.8907485,10.294475 16.363626 0 1 -5.66889,9.06233 2.8907485,10.294475 16.363626 0 1 0.12767,-10.69038 2.8907485,10.294475 16.363626 0 1 0.20597,-0.69636 2.8907485,10.294475 16.363626 0 1 5.16865,-8.39544 z m 267.23074,37.55373 c 1.5941,0.0134 2.88403,4.62132 2.88355,10.29808 0,0.24199 0,0.48395 0,0.72576 -0.10764,5.38784 -1.36673,9.56261 -2.88355,9.56252 -1.59683,0.004 -2.89234,-4.60169 -2.89327,-10.28828 -5.8e-4,-5.69037 1.29536,-10.30306 2.89327,-10.29808 z m -255.48109,39.63294 c 1.53072,-0.45458 4.06585,3.59662 5.66885,9.05257 1.60375,5.45993 1.66224,10.25514 0.12767,10.70017 -1.53352,0.4355 -4.07008,-3.62514 -5.66884,-9.07213 -0.0703,-0.23133 -0.14012,-0.46363 -0.20598,-0.69632 -1.4145,-5.20025 -1.37705,-9.55732 0.0783,-9.98429 z M 495.17122,543.248 a 2.8907485,10.294475 32.727245 0 1 0.58844,0.13745 2.8907485,10.294475 32.727245 0 1 -3.13843,10.21964 2.8907485,10.294475 32.727245 0 1 -0.39235,0.61791 2.8907485,10.294475 32.727245 0 1 -7.60097,6.48289 2.8907485,10.294475 32.727245 0 1 3.12864,-10.21963 2.8907485,10.294475 32.727245 0 1 7.41462,-7.23814 z m -214.8674,41.14336 a 10.294475,2.8907485 40.909094 0 1 8.88582,4.89405 10.294475,2.8907485 40.909094 0 1 5.88464,8.92502 10.294475,2.8907485 40.909094 0 1 -9.67045,-4.5606 10.294475,2.8907485 40.909094 0 1 -0.5492,-0.48056 10.294475,2.8907485 40.909094 0 1 -5.33539,-8.43462 10.294475,2.8907485 40.909094 0 1 0.78458,-0.34341 z m 72.94979,15.46678 c 1.23979,0.0311 2.59434,0.14101 4.00157,0.34342 5.63254,0.80926 10.01062,2.74425 9.77826,4.32518 -0.24109,1.57584 -4.98324,2.20114 -10.60211,1.39273 -0.23977,-0.0311 -0.47697,-0.0712 -0.71598,-0.10808 -5.31764,-0.87351 -9.26844,-2.71597 -9.05251,-4.21731 0.16681,-1.18597 2.87138,-1.82659 6.59077,-1.73597 z m 86.28827,7.32634 a 2.8907485,10.294475 65.454554 0 1 2.30478,0.73559 2.8907485,10.294475 65.454554 0 1 -8.16981,6.90461 2.8907485,10.294475 65.454554 0 1 -0.65712,0.29405 2.8907485,10.294475 65.454554 0 1 -9.89598,1.35349 2.8907485,10.294475 65.454554 0 1 8.16002,-6.90467 2.8907485,10.294475 65.454554 0 1 8.25811,-2.38324 z"
         style="display:inline;opacity:1;fill:#ffffff;fill-opacity:1;stroke:none;stroke-width:1.00430989;stroke-linecap:round;stroke-linejoin:miter;stroke-miterlimit:4;stroke-dasharray:none;stroke-dashoffset:0;stroke-opacity:1" />
      <circle
         r="85.530762"
         cy="479.00769"
         cx="376.38293"
         id="path47"
         style="fill:none;stroke:#ffffff;stroke-width:10;stroke-miterlimit:4;stroke-dasharray:none" />
    </g>
    <path
       style="display:inline;opacity:1;fill:#ffffff;fill-opacity:1;stroke:none;stroke-width:0.14338721;stroke-linecap:round;stroke-linejoin:miter;stroke-miterlimit:4;stroke-dasharray:none;stroke-dashoffset:0;stroke-opacity:1"
       d="m 528.33533,413.0436 a 1.1390651,1.9474338 81.818162 0 0 -0.38646,0.0322 1.1390651,1.9474338 81.818162 0 0 -1.76574,1.40447 1.1390651,1.9474338 81.818162 0 0 0.89196,0.78834 l 0.59792,4.16019 a 16.755281,16.755281 0 0 0 -6.90611,3.05678 l -0.91157,-1.053 a 1.1390651,1.9474338 49.090901 0 0 -0.0112,-1.19022 1.1390651,1.9474338 49.090901 0 0 -2.21662,0.41447 1.1390651,1.9474338 49.090901 0 0 -0.72534,2.13541 1.1390651,1.9474338 49.090901 0 0 1.17622,0.18064 l 0.90737,1.0474 a 16.755281,16.755281 0 0 0 -3.99775,6.40341 l -2.6353,-0.77435 a 1.1390651,1.9474338 16.363626 0 0 -0.65253,-0.99559 1.1390651,1.9474338 16.363626 0 0 -1.63971,1.5473 1.1390651,1.9474338 16.363626 0 0 0.5433,2.19001 1.1390651,1.9474338 16.363626 0 0 1.08801,-0.48449 l 2.67731,0.78555 a 16.755281,16.755281 0 0 0 -0.31085,3.1828 16.755281,16.755281 0 0 0 0.48448,3.92215 l -0.40047,0.14983 c -0.34285,-0.40486 -0.74481,-0.58374 -1.08661,-0.4845 -0.60296,0.17769 -0.84715,1.15737 -0.5447,2.18862 0.30282,1.03171 1.0375,1.72389 1.64111,1.54729 0.34187,-0.10072 0.58428,-0.46892 0.65392,-0.99559 l 0.43269,-0.16243 a 16.755281,16.755281 0 0 0 4.43604,6.3292 l -1.59631,1.84135 a 1.9474338,1.1390651 40.909094 0 0 -1.17622,0.17924 1.9474338,1.1390651 40.909094 0 0 0.72534,2.1354 1.9474338,1.1390651 40.909094 0 0 2.21662,0.41588 1.9474338,1.1390651 40.909094 0 0 0.0112,-1.19162 l 1.67752,-1.93518 a 16.755281,16.755281 0 0 0 5.52545,2.37346 c -0.50008,0.14547 -0.8241,0.43211 -0.87517,0.77995 -0.0888,0.62228 0.70063,1.24978 1.76433,1.40306 1.06428,0.15313 1.99909,-0.22754 2.0892,-0.84996 0.0477,-0.33398 -0.16717,-0.68183 -0.57131,-0.95778 a 16.755281,16.755281 0 0 0 1.34846,0.0672 16.755281,16.755281 0 0 0 5.3014,-0.88217 l 1.14402,2.50508 a 1.1390651,1.9474338 65.454554 0 0 -0.32486,1.14401 1.1390651,1.9474338 65.454554 0 0 2.24322,0.22685 1.1390651,1.9474338 65.454554 0 0 1.29805,-1.84415 1.1390651,1.9474338 65.454554 0 0 -1.07821,-0.50549 l -1.10341,-2.41407 a 16.755281,16.755281 0 0 0 5.92733,-4.97094 l 1.17622,0.75474 a 1.1390651,1.9474338 32.727245 0 0 0.34446,1.13842 1.1390651,1.9474338 32.727245 0 0 2.01079,-1.0208 1.1390651,1.9474338 32.727245 0 0 0.0952,-2.25442 1.1390651,1.9474338 32.727245 0 0 -1.18042,0.15823 l -1.15801,-0.74354 a 16.755281,16.755281 0 0 0 2.00097,-6.87251 h 0.5335 c 0.21491,0.48505 0.55006,0.77048 0.90597,0.77155 0.6286,-4.3e-4 1.13808,-0.87168 1.13843,-1.94637 8e-5,-1.07523 -0.50952,-1.94715 -1.13843,-1.94777 -0.3564,1.4e-4 -0.69217,0.28583 -0.90737,0.77155 h -0.51529 a 16.755281,16.755281 0 0 0 -2.17462,-7.11055 l 0.4845,-0.29685 c 0.44302,0.29185 0.87903,0.34974 1.17902,0.15822 0.52847,-0.34036 0.48551,-1.34876 -0.0952,-2.25302 -0.58122,-0.90461 -1.48138,-1.3617 -2.01078,-1.0222 -0.29965,0.19296 -0.42743,0.61486 -0.34587,1.13982 l -0.50689,0.31086 a 16.755281,16.755281 0 0 0 -5.23279,-4.46405 l 0.5727,-1.25464 a 1.9474338,1.1390651 24.545441 0 0 1.07821,-0.50269 1.9474338,1.1390651 24.545441 0 0 -1.29665,-1.84415 1.9474338,1.1390651 24.545441 0 0 -2.24462,0.22544 1.9474338,1.1390651 24.545441 0 0 0.32486,1.14682 l -0.57971,1.26863 a 16.755281,16.755281 0 0 0 -5.86571,-1.081 16.755281,16.755281 0 0 0 -0.80516,0.028 l -0.60631,-4.2148 a 1.1390651,1.9474338 81.818162 0 0 0.63432,-1.00678 1.1390651,1.9474338 81.818162 0 0 -1.70133,-0.88217 z m 0.30946,0.33886 a 0.41271759,1.4697615 81.818162 0 1 0.84856,0.24925 0.41271759,1.4697615 81.818162 0 1 -1.39606,0.61892 0.41271759,1.4697615 81.818162 0 1 -1.51368,-0.20024 0.41271759,1.4697615 81.818162 0 1 1.39606,-0.61612 0.41271759,1.4697615 81.818162 0 1 0.10362,-0.0154 0.41271759,1.4697615 81.818162 0 1 0.5615,-0.0364 z m 9.16334,4.15319 a 1.4697615,0.41271759 24.545441 0 1 1.20423,0.34166 1.4697615,0.41271759 24.545441 0 1 0.0938,0.0435 1.4697615,0.41271759 24.545441 0 1 1.0712,0.94098 1.4697615,0.41271759 24.545441 0 1 -1.50809,-0.23385 1.4697615,0.41271759 24.545441 0 1 -1.16641,-0.98719 1.4697615,0.41271759 24.545441 0 1 0.30525,-0.10502 z m -18.71035,2.70531 a 0.41271759,1.4697615 49.090901 0 1 0.13022,0.049 0.41271759,1.4697615 49.090901 0 1 -0.84015,1.27424 0.41271759,1.4697615 49.090901 0 1 -1.38206,0.64972 0.41271759,1.4697615 49.090901 0 1 0.84156,-1.27283 0.41271759,1.4697615 49.090901 0 1 0.0784,-0.0686 0.41271759,1.4697615 49.090901 0 1 1.17202,-0.63152 z m 11.71603,2.77533 a 12.858258,12.858258 0 0 1 12.85864,12.85864 12.858258,12.858258 0 0 1 -12.85864,12.85864 12.858258,12.858258 0 0 1 -12.85864,-12.85864 12.858258,12.858258 0 0 1 12.85864,-12.85864 z m 14.74059,1.32465 c 0.23272,0.0149 0.67105,0.43676 1.0544,1.0334 0.0189,0.0288 0.0377,0.0576 0.056,0.0868 0.40291,0.65544 0.57425,1.25379 0.39207,1.37086 -0.1914,0.12385 -0.70216,-0.32947 -1.14121,-1.01239 -0.43931,-0.68342 -0.64039,-1.33633 -0.44809,-1.45908 0.0241,-0.0152 0.0535,-0.0217 0.0868,-0.0196 z m -34.38912,4.68249 a 0.41271759,1.4697615 16.363626 0 1 0.042,0.004 0.41271759,1.4697615 16.363626 0 1 -0.0182,1.52629 0.41271759,1.4697615 16.363626 0 1 -0.80935,1.29384 0.41271759,1.4697615 16.363626 0 1 0.0182,-1.52628 0.41271759,1.4697615 16.363626 0 1 0.0294,-0.0994 0.41271759,1.4697615 16.363626 0 1 0.73794,-1.19864 z m 38.15303,5.36162 c 0.2276,0.002 0.41176,0.65979 0.41169,1.47027 0,0.0346 0,0.0691 0,0.10362 -0.0154,0.76923 -0.19513,1.36527 -0.41169,1.36526 -0.22798,5.7e-4 -0.41294,-0.65699 -0.41307,-1.46888 -9e-5,-0.81242 0.18494,-1.47098 0.41307,-1.47027 z m -36.47551,5.65847 c 0.21854,-0.0649 0.58049,0.51349 0.80935,1.29245 0.22897,0.77952 0.23732,1.46414 0.0182,1.52768 -0.21894,0.0622 -0.58109,-0.51757 -0.80935,-1.29524 -0.01,-0.033 -0.02,-0.0662 -0.0294,-0.0994 -0.20195,-0.74245 -0.1966,-1.36452 0.0112,-1.42547 z m 34.98283,5.02835 a 0.41271759,1.4697615 32.727245 0 1 0.084,0.0196 0.41271759,1.4697615 32.727245 0 1 -0.44808,1.45907 0.41271759,1.4697615 32.727245 0 1 -0.056,0.0882 0.41271759,1.4697615 32.727245 0 1 -1.0852,0.92558 0.41271759,1.4697615 32.727245 0 1 0.44668,-1.45908 0.41271759,1.4697615 32.727245 0 1 1.0586,-1.0334 z m -30.67702,5.87412 a 1.4697615,0.41271759 40.909094 0 1 1.26865,0.69873 1.4697615,0.41271759 40.909094 0 1 0.84016,1.27424 1.4697615,0.41271759 40.909094 0 1 -1.38067,-0.65112 1.4697615,0.41271759 40.909094 0 1 -0.0784,-0.0686 1.4697615,0.41271759 40.909094 0 1 -0.76174,-1.20422 1.4697615,0.41271759 40.909094 0 1 0.11201,-0.049 z m 10.41518,2.20822 c 0.17701,0.004 0.3704,0.0201 0.57131,0.049 0.80417,0.11554 1.42924,0.3918 1.39606,0.61751 -0.0344,0.22499 -0.71146,0.31426 -1.51368,0.19884 -0.0342,-0.004 -0.0681,-0.0102 -0.10222,-0.0154 -0.75921,-0.12471 -1.32328,-0.38776 -1.29245,-0.60211 0.0238,-0.16932 0.40996,-0.26078 0.94098,-0.24785 z m 12.31954,1.04599 a 0.41271759,1.4697615 65.454554 0 1 0.32906,0.10502 0.41271759,1.4697615 65.454554 0 1 -1.16642,0.98579 0.41271759,1.4697615 65.454554 0 1 -0.0938,0.042 0.41271759,1.4697615 65.454554 0 1 -1.41287,0.19324 0.41271759,1.4697615 65.454554 0 1 1.16502,-0.98579 0.41271759,1.4697615 65.454554 0 1 1.17903,-0.34026 z"
       id="path864-6"
       inkscape:connector-curvature="0"
       mask="url(#mask5069)"
       transform="translate(-8.0812203,-9.5843989)" />
    <path
       style="display:inline;opacity:1;fill:#ffffff;fill-opacity:1;stroke:none;stroke-width:0.32503426;stroke-linecap:round;stroke-linejoin:miter;stroke-miterlimit:4;stroke-dasharray:none;stroke-dashoffset:0;stroke-opacity:1"
       d="m 580.7911,437.41475 a 2.5820656,4.414499 81.818162 0 0 -0.87604,0.073 2.5820656,4.414499 81.818162 0 0 -4.00263,3.18369 2.5820656,4.414499 81.818162 0 0 2.02192,1.78704 l 1.35539,9.43043 a 37.981353,37.981353 0 0 0 -15.65497,6.9292 l -2.06638,-2.38697 a 2.5820656,4.414499 49.090901 0 0 -0.0254,-2.69802 2.5820656,4.414499 49.090901 0 0 -5.0247,0.93953 2.5820656,4.414499 49.090901 0 0 -1.64422,4.84061 2.5820656,4.414499 49.090901 0 0 2.66629,0.40948 l 2.05685,2.37427 a 37.981353,37.981353 0 0 0 -9.06222,14.51544 l -5.97377,-1.75532 a 2.5820656,4.414499 16.363626 0 0 -1.47917,-2.25683 2.5820656,4.414499 16.363626 0 0 -3.71695,3.50746 2.5820656,4.414499 16.363626 0 0 1.23157,4.96438 2.5820656,4.414499 16.363626 0 0 2.46633,-1.09826 l 6.06901,1.78071 a 37.981353,37.981353 0 0 0 -0.70465,7.21486 37.981353,37.981353 0 0 0 1.09824,8.89084 l -0.9078,0.33964 c -0.77718,-0.91774 -1.68836,-1.32323 -2.46316,-1.09827 -1.36681,0.40279 -1.92034,2.62355 -1.23474,4.96122 0.68644,2.33871 2.35183,3.90777 3.72012,3.50744 0.77496,-0.22831 1.32446,-1.06296 1.48232,-2.25683 l 0.98083,-0.3682 a 37.981353,37.981353 0 0 0 10.05575,14.34721 l -3.61856,4.17403 a 4.414499,2.5820656 40.909094 0 0 -2.66629,0.4063 4.414499,2.5820656 40.909094 0 0 1.64422,4.84059 4.414499,2.5820656 40.909094 0 0 5.0247,0.94273 4.414499,2.5820656 40.909094 0 0 0.0254,-2.7012 l 3.80266,-4.38672 a 37.981353,37.981353 0 0 0 12.52524,5.38023 c -1.13359,0.32975 -1.86809,0.97952 -1.98386,1.76801 -0.20129,1.4106 1.58821,2.83304 3.99944,3.1805 2.41254,0.34712 4.53159,-0.5158 4.73586,-1.92672 0.10812,-0.75707 -0.37895,-1.54559 -1.29507,-2.17112 a 37.981353,37.981353 0 0 0 3.05673,0.15233 37.981353,37.981353 0 0 0 12.01737,-1.99973 l 2.5933,5.67859 a 2.5820656,4.414499 65.454554 0 0 -0.73641,2.59327 2.5820656,4.414499 65.454554 0 0 5.085,0.51423 2.5820656,4.414499 65.454554 0 0 2.94246,-4.18037 2.5820656,4.414499 65.454554 0 0 -2.44412,-1.14586 l -2.50124,-5.47228 a 37.981353,37.981353 0 0 0 13.43624,-11.26827 l 2.66629,1.71087 a 2.5820656,4.414499 32.727245 0 0 0.78083,2.5806 2.5820656,4.414499 32.727245 0 0 4.55812,-2.31398 2.5820656,4.414499 32.727245 0 0 0.2158,-5.11038 2.5820656,4.414499 32.727245 0 0 -2.67581,0.35868 l -2.62501,-1.68548 a 37.981353,37.981353 0 0 0 4.53586,-15.5788 h 1.20935 c 0.48716,1.09952 1.24689,1.74654 2.05368,1.74897 1.42493,-9.8e-4 2.57983,-1.97595 2.58062,-4.41209 1.9e-4,-2.43736 -1.15499,-4.41386 -2.58062,-4.41526 -0.8079,3.2e-4 -1.56903,0.64793 -2.05685,1.74897 h -1.16808 a 37.981353,37.981353 0 0 0 -4.92949,-16.1184 l 1.09828,-0.67291 c 1.00425,0.66158 1.99261,0.7928 2.67264,0.35866 1.19795,-0.77154 1.10056,-3.05741 -0.21581,-5.10721 -1.31752,-2.0506 -3.35803,-3.08674 -4.55809,-2.31715 -0.67926,0.4374 -0.96891,1.39378 -0.78403,2.58377 l -1.14903,0.70467 A 37.981353,37.981353 0 0 0 604.5688,455.81533 l 1.29821,-2.84405 a 4.414499,2.5820656 24.545441 0 0 2.44412,-1.13951 4.414499,2.5820656 24.545441 0 0 -2.93928,-4.18037 4.414499,2.5820656 24.545441 0 0 -5.08817,0.51103 4.414499,2.5820656 24.545441 0 0 0.7364,2.59964 l -1.3141,2.87577 a 37.981353,37.981353 0 0 0 -13.29656,-2.45044 37.981353,37.981353 0 0 0 -1.82516,0.0635 l -1.37441,-9.55423 a 2.5820656,4.414499 81.818162 0 0 1.4379,-2.2822 2.5820656,4.414499 81.818162 0 0 -3.85662,-1.99973 z m 0.7015,0.76814 a 0.93556011,3.3316977 81.818162 0 1 1.92354,0.565 0.93556011,3.3316977 81.818162 0 1 -3.16463,1.40299 0.93556011,3.3316977 81.818162 0 1 -3.43126,-0.45391 0.93556011,3.3316977 81.818162 0 1 3.16463,-1.39664 0.93556011,3.3316977 81.818162 0 1 0.23489,-0.0349 0.93556011,3.3316977 81.818162 0 1 1.27283,-0.0825 z m 20.77172,9.41457 a 3.3316977,0.93556011 24.545441 0 1 2.72978,0.77448 3.3316977,0.93556011 24.545441 0 1 0.21263,0.0986 3.3316977,0.93556011 24.545441 0 1 2.42823,2.13304 3.3316977,0.93556011 24.545441 0 1 -3.41858,-0.5301 3.3316977,0.93556011 24.545441 0 1 -2.64406,-2.23779 3.3316977,0.93556011 24.545441 0 1 0.69195,-0.23806 z m -42.41316,6.13247 a 0.93556011,3.3316977 49.090901 0 1 0.29518,0.11108 0.93556011,3.3316977 49.090901 0 1 -1.90447,2.88848 0.93556011,3.3316977 49.090901 0 1 -3.13289,1.4728 0.93556011,3.3316977 49.090901 0 1 1.90767,-2.88528 0.93556011,3.3316977 49.090901 0 1 0.17772,-0.15551 0.93556011,3.3316977 49.090901 0 1 2.65677,-1.43155 z m 26.55823,6.2912 a 29.147469,29.147469 0 0 1 29.14834,29.14834 29.147469,29.147469 0 0 1 -29.14834,29.14833 29.147469,29.147469 0 0 1 -29.14833,-29.14833 29.147469,29.147469 0 0 1 29.14833,-29.14834 z m 33.4144,3.00275 c 0.52753,0.0338 1.52115,0.99006 2.39014,2.34255 0.0428,0.0653 0.0855,0.13056 0.12694,0.19676 0.91333,1.48577 1.30173,2.84212 0.88876,3.1075 -0.43387,0.28075 -1.59168,-0.74685 -2.58693,-2.29491 -0.99584,-1.5492 -1.45165,-3.02924 -1.01574,-3.30749 0.0546,-0.0344 0.12127,-0.0492 0.19676,-0.0444 z m -77.95425,10.61441 a 0.93556011,3.3316977 16.363626 0 1 0.0952,0.009 0.93556011,3.3316977 16.363626 0 1 -0.0413,3.45984 0.93556011,3.3316977 16.363626 0 1 -1.83466,2.93292 0.93556011,3.3316977 16.363626 0 1 0.0413,-3.45982 0.93556011,3.3316977 16.363626 0 1 0.0666,-0.22532 0.93556011,3.3316977 16.363626 0 1 1.67279,-2.71711 z m 86.48639,12.15387 c 0.51593,0.005 0.93339,1.49563 0.93323,3.33285 0,0.0784 0,0.15664 0,0.23489 -0.0349,1.74371 -0.44233,3.09483 -0.93323,3.09481 -0.5168,0.001 -0.93607,-1.48928 -0.93636,-3.3297 -2.1e-4,-1.84161 0.41922,-3.33446 0.93636,-3.33285 z m -82.68374,12.82678 c 0.49539,-0.14711 1.31587,1.164 1.83466,2.92977 0.51903,1.76704 0.53796,3.31895 0.0412,3.46299 -0.4963,0.14099 -1.31723,-1.17325 -1.83465,-2.93609 -0.0227,-0.0748 -0.0453,-0.15006 -0.0666,-0.22532 -0.45778,-1.68301 -0.44566,-3.09314 0.0254,-3.2313 z m 79.30009,11.39841 a 0.93556011,3.3316977 32.727245 0 1 0.19041,0.0444 0.93556011,3.3316977 32.727245 0 1 -1.01572,3.30747 0.93556011,3.3316977 32.727245 0 1 -0.12694,0.19993 0.93556011,3.3316977 32.727245 0 1 -2.45997,2.09813 0.93556011,3.3316977 32.727245 0 1 1.01255,-3.30748 0.93556011,3.3316977 32.727245 0 1 2.39967,-2.34254 z m -69.53956,13.31563 a 3.3316977,0.93556011 40.909094 0 1 2.87582,1.5839 3.3316977,0.93556011 40.909094 0 1 1.90449,2.88848 3.3316977,0.93556011 40.909094 0 1 -3.12974,-1.47597 3.3316977,0.93556011 40.909094 0 1 -0.17772,-0.15551 3.3316977,0.93556011 40.909094 0 1 -1.72673,-2.72976 3.3316977,0.93556011 40.909094 0 1 0.25391,-0.11107 z m 23.60943,5.00565 c 0.40125,0.009 0.83964,0.0456 1.29507,0.11108 1.82291,0.26191 3.23984,0.88814 3.16462,1.39979 -0.078,0.51001 -1.61275,0.71237 -3.43125,0.45073 -0.0775,-0.009 -0.15437,-0.0231 -0.23171,-0.0349 -1.721,-0.2827 -2.99965,-0.87899 -2.92977,-1.36488 0.0539,-0.38382 0.92931,-0.59115 2.13304,-0.56184 z m 27.92629,2.37108 a 0.93556011,3.3316977 65.454554 0 1 0.74592,0.23807 0.93556011,3.3316977 65.454554 0 1 -2.64407,2.23461 0.93556011,3.3316977 65.454554 0 1 -0.21263,0.0952 0.93556011,3.3316977 65.454554 0 1 -3.20273,0.43804 0.93556011,3.3316977 65.454554 0 1 2.6409,-2.23461 0.93556011,3.3316977 65.454554 0 1 2.67266,-0.77132 z"
       id="path864-6-5"
       inkscape:connector-curvature="0"
       mask="url(#mask5065)"
       transform="matrix(0.91162289,0,0,0.91162289,55.304507,-48.358618)" />
    <path
       style="display:inline;opacity:1;fill:#ffffff;fill-opacity:1;stroke:none;stroke-width:0.62349761;stroke-linecap:round;stroke-linejoin:miter;stroke-miterlimit:4;stroke-dasharray:none;stroke-dashoffset:0;stroke-opacity:1"
       d="m 558.61792,534.18231 a 4.9530524,8.4681214 81.818162 0 0 -1.68046,0.14003 4.9530524,8.4681214 81.818162 0 0 -7.67806,6.10712 4.9530524,8.4681214 81.818162 0 0 3.87857,3.42799 l 2.59998,18.08995 a 72.857805,72.857805 0 0 0 -30.03018,13.29194 l -3.96385,-4.57881 a 4.9530524,8.4681214 49.090901 0 0 -0.0487,-5.17547 4.9530524,8.4681214 49.090901 0 0 -9.63864,1.80224 4.9530524,8.4681214 49.090901 0 0 -3.15402,9.28552 4.9530524,8.4681214 49.090901 0 0 5.1146,0.78548 l 3.94556,4.55445 a 72.857805,72.857805 0 0 0 -17.3836,27.84427 l -11.45922,-3.36715 a 4.9530524,8.4681214 16.363626 0 0 -2.83742,-4.32916 4.9530524,8.4681214 16.363626 0 0 -7.13004,6.72819 4.9530524,8.4681214 16.363626 0 0 2.36245,9.52293 4.9530524,8.4681214 16.363626 0 0 4.73105,-2.10674 l 11.64189,3.41585 a 72.857805,72.857805 0 0 0 -1.3517,13.83992 72.857805,72.857805 0 0 0 2.10673,17.05487 l -1.74141,0.65152 c -1.49083,-1.76046 -3.2387,-2.53829 -4.72496,-2.10676 -2.62189,0.77265 -3.6837,5.03263 -2.36855,9.51687 1.31677,4.48624 4.5114,7.49609 7.13613,6.72815 1.48657,-0.43795 2.54065,-2.03902 2.84349,-4.32917 l 1.88145,-0.70629 a 72.857805,72.857805 0 0 0 19.28946,27.52155 l -6.94131,8.00685 a 8.4681214,4.9530524 40.909094 0 0 -5.1146,0.77938 8.4681214,4.9530524 40.909094 0 0 3.15402,9.28548 8.4681214,4.9530524 40.909094 0 0 9.63864,1.80839 8.4681214,4.9530524 40.909094 0 0 0.0487,-5.18159 l 7.29445,-8.41483 a 72.857805,72.857805 0 0 0 24.02657,10.32064 c -2.17449,0.63254 -3.58346,1.87897 -3.80554,3.39149 -0.38611,2.70588 3.04659,5.43448 7.67194,6.101 4.62787,0.66587 8.69274,-0.98944 9.08457,-3.69593 0.20741,-1.45225 -0.7269,-2.96484 -2.48425,-4.16476 a 72.857805,72.857805 0 0 0 5.86356,0.29221 72.857805,72.857805 0 0 0 23.05236,-3.83599 l 4.9746,10.89297 a 4.9530524,8.4681214 65.454554 0 0 -1.41262,4.97454 4.9530524,8.4681214 65.454554 0 0 9.75431,0.98643 4.9530524,8.4681214 65.454554 0 0 5.64438,-8.01901 4.9530524,8.4681214 65.454554 0 0 -4.68843,-2.19805 l -4.79802,-10.49721 a 72.857805,72.857805 0 0 0 25.7741,-21.61537 l 5.11462,3.28187 a 4.9530524,8.4681214 32.727245 0 0 1.49781,4.95024 4.9530524,8.4681214 32.727245 0 0 8.74363,-4.43879 4.9530524,8.4681214 32.727245 0 0 0.41397,-9.803 4.9530524,8.4681214 32.727245 0 0 -5.13288,0.68804 l -5.03545,-3.23317 a 72.857805,72.857805 0 0 0 8.70092,-29.88407 h 2.31986 c 0.93449,2.10916 2.39185,3.3503 3.93947,3.35496 2.73337,-0.002 4.94877,-3.79037 4.95028,-8.4635 3.5e-4,-4.67546 -2.21556,-8.46689 -4.95028,-8.46958 -1.54977,6.2e-4 -3.00979,1.24289 -3.94556,3.35497 h -2.24067 a 72.857805,72.857805 0 0 0 -9.45602,-30.91915 l 2.10678,-1.29082 c 1.92641,1.26908 3.82233,1.52079 5.1268,0.688 2.29799,-1.48 2.11116,-5.86487 -0.41396,-9.79691 -2.52734,-3.93357 -6.44155,-5.92114 -8.74356,-4.44488 -1.303,0.83904 -1.85862,2.67362 -1.50397,4.95632 l -2.20415,1.35174 a 72.857805,72.857805 0 0 0 -22.754,-19.41126 l 2.49031,-5.4556 a 8.4681214,4.9530524 24.545441 0 0 4.68844,-2.18586 8.4681214,4.9530524 24.545441 0 0 -5.63828,-8.01901 8.4681214,4.9530524 24.545441 0 0 -9.76039,0.98029 8.4681214,4.9530524 24.545441 0 0 1.4126,4.98676 l -2.52077,5.51645 a 72.857805,72.857805 0 0 0 -25.50616,-4.70056 72.857805,72.857805 0 0 0 -3.50114,0.12181 l -2.63644,-18.32742 a 4.9530524,8.4681214 81.818162 0 0 2.75824,-4.37783 4.9530524,8.4681214 81.818162 0 0 -7.39796,-3.83599 z m 1.34565,1.47348 a 1.79464,6.3910357 81.818162 0 1 3.68986,1.08382 1.79464,6.3910357 81.818162 0 1 -6.07056,2.69128 1.79464,6.3910357 81.818162 0 1 -6.58202,-0.87071 1.79464,6.3910357 81.818162 0 1 6.07054,-2.6791 1.79464,6.3910357 81.818162 0 1 0.45057,-0.067 1.79464,6.3910357 81.818162 0 1 2.44161,-0.15825 z m 39.84541,18.05953 a 6.3910357,1.79464 24.545441 0 1 5.23641,1.48564 6.3910357,1.79464 24.545441 0 1 0.40788,0.18914 6.3910357,1.79464 24.545441 0 1 4.65794,4.09171 6.3910357,1.79464 24.545441 0 1 -6.55768,-1.01687 6.3910357,1.79464 24.545441 0 1 -5.07197,-4.29264 6.3910357,1.79464 24.545441 0 1 1.32731,-0.45666 z m -81.35912,11.76362 a 1.79464,6.3910357 49.090901 0 1 0.56623,0.21308 1.79464,6.3910357 49.090901 0 1 -3.65326,5.54082 1.79464,6.3910357 49.090901 0 1 -6.00969,2.82521 1.79464,6.3910357 49.090901 0 1 3.6594,-5.5347 1.79464,6.3910357 49.090901 0 1 0.34093,-0.29831 1.79464,6.3910357 49.090901 0 1 5.09635,-2.74607 z m 50.94536,12.0681 a 55.91219,55.91219 0 0 1 55.91387,55.91386 55.91219,55.91219 0 0 1 -55.91387,55.91384 55.91219,55.91219 0 0 1 -55.91383,-55.91384 55.91219,55.91219 0 0 1 55.91383,-55.91386 z m 64.09723,5.76003 c 1.01196,0.0648 2.91797,1.89919 4.58491,4.4936 0.0821,0.12526 0.16401,0.25045 0.24351,0.37744 1.75199,2.85008 2.49704,5.4519 1.70487,5.96096 -0.83228,0.53855 -3.05325,-1.43264 -4.9624,-4.40221 -1.91026,-2.97175 -2.78462,-5.81084 -1.94843,-6.3446 0.10473,-0.066 0.2326,-0.0944 0.37743,-0.0852 z m -149.53589,20.36111 a 1.79464,6.3910357 16.363626 0 1 0.18262,0.0173 1.79464,6.3910357 16.363626 0 1 -0.0793,6.63685 1.79464,6.3910357 16.363626 0 1 -3.51933,5.62608 1.79464,6.3910357 16.363626 0 1 0.0792,-6.63681 1.79464,6.3910357 16.363626 0 1 0.12775,-0.43223 1.79464,6.3910357 16.363626 0 1 3.20884,-5.21209 z m 165.90271,23.31419 c 0.98966,0.01 1.79045,2.86899 1.79015,6.39324 0,0.1504 0,0.30048 0,0.45058 -0.067,3.34488 -0.84848,5.93667 -1.79015,5.93663 -0.99135,0.002 -1.79564,-2.85681 -1.79619,-6.38721 -4.1e-4,-3.53267 0.80416,-6.39633 1.79619,-6.39324 z M 491.251,651.58736 c 0.95029,-0.28219 2.52417,2.23285 3.51934,5.62004 0.99563,3.38963 1.03194,6.36659 0.0791,6.64289 -0.95203,0.27045 -2.52678,-2.25059 -3.51932,-5.63216 -0.0436,-0.14348 -0.0869,-0.28786 -0.12776,-0.43222 -0.87813,-3.22844 -0.85488,-5.93342 0.0487,-6.19845 z m 152.11758,21.86503 a 1.79464,6.3910357 32.727245 0 1 0.36525,0.0852 1.79464,6.3910357 32.727245 0 1 -1.94843,6.34457 1.79464,6.3910357 32.727245 0 1 -0.2435,0.38351 1.79464,6.3910357 32.727245 0 1 -4.71885,4.02474 1.79464,6.3910357 32.727245 0 1 1.94235,-6.34458 1.79464,6.3910357 32.727245 0 1 4.60318,-4.49358 z m -133.39442,25.54273 a 6.3910357,1.79464 40.909094 0 1 5.51657,3.03832 6.3910357,1.79464 40.909094 0 1 3.65329,5.54083 6.3910357,1.79464 40.909094 0 1 -6.00365,-2.83128 6.3910357,1.79464 40.909094 0 1 -0.34089,-0.29831 6.3910357,1.79464 40.909094 0 1 -3.31233,-5.23637 6.3910357,1.79464 40.909094 0 1 0.48708,-0.21306 z m 45.28885,9.6021 c 0.7697,0.0172 1.61063,0.0875 2.48428,0.21307 3.49677,0.50242 6.21482,1.70368 6.07053,2.68516 -0.14963,0.97833 -3.09366,1.36651 -6.58202,0.86461 -0.14867,-0.0173 -0.2961,-0.0443 -0.44446,-0.067 -3.30131,-0.5423 -5.75409,-1.68612 -5.62004,-2.61819 0.1034,-0.73626 1.78266,-1.13397 4.09171,-1.07775 z m 53.56967,4.54833 a 1.79464,6.3910357 65.454554 0 1 1.43086,0.45668 1.79464,6.3910357 65.454554 0 1 -5.072,4.28654 1.79464,6.3910357 65.454554 0 1 -0.40789,0.18262 1.79464,6.3910357 65.454554 0 1 -6.14365,0.84027 1.79464,6.3910357 65.454554 0 1 5.06592,-4.28654 1.79464,6.3910357 65.454554 0 1 5.12683,-1.47959 z"
       id="path864-6-5-3"
       inkscape:connector-curvature="0"
       mask="url(#mask5061)"
       transform="matrix(0.89905741,0,0,0.89905741,62.653518,-39.253184)" />
  </g>
  <g
     inkscape:groupmode="layer"
     id="layer2"
     inkscape:label="Mask"
     style="display:none;opacity:0.55;filter:url(#filter5082)"
     transform="translate(0,94)">
    <rect
       style="color:#000000;clip-rule:nonzero;display:inline;overflow:visible;visibility:visible;opacity:1;isolation:auto;mix-blend-mode:normal;color-interpolation:sRGB;color-interpolation-filters:linearRGB;solid-color:#000000;solid-opacity:1;fill:#ffffff;fill-opacity:1;fill-rule:nonzero;stroke:none;stroke-width:0.47434497;stroke-linecap:butt;stroke-linejoin:miter;stroke-miterlimit:4;stroke-dasharray:none;stroke-dashoffset:0;stroke-opacity:1;marker:none;color-rendering:auto;image-rendering:auto;shape-rendering:auto;text-rendering:auto;enable-background:accumulate"
       id="rect5075"
       width="204"
       height="326"
       x="7.2134571e-06"
       y="-94" />
  </g>
</svg>
