<?xml version="1.0" encoding="UTF-8" standalone="no"?>
<!-- Generator: Adobe Illustrator 17.0.1, SVG Export Plug-In . SVG Version: 6.00 Build 0)  -->

<svg
   xmlns:dc="http://purl.org/dc/elements/1.1/"
   xmlns:cc="http://creativecommons.org/ns#"
   xmlns:rdf="http://www.w3.org/1999/02/22-rdf-syntax-ns#"
   xmlns:svg="http://www.w3.org/2000/svg"
   xmlns="http://www.w3.org/2000/svg"
   xmlns:sodipodi="http://sodipodi.sourceforge.net/DTD/sodipodi-0.dtd"
   xmlns:inkscape="http://www.inkscape.org/namespaces/inkscape"
   version="1.1"
   id="Layer_1"
   x="0px"
   y="0px"
   width="32px"
   height="32px"
   viewBox="0 0 32 32"
   style="enable-background:new 0 0 32 32;"
   xml:space="preserve"
   sodipodi:docname="icon-s-active.svg"
   inkscape:version="0.92.5 (2060ec1f9f, 2020-04-08)"><metadata
   id="metadata13"><rdf:RDF><cc:Work
       rdf:about=""><dc:format>image/svg+xml</dc:format><dc:type
         rdf:resource="http://purl.org/dc/dcmitype/StillImage" /><dc:title></dc:title></cc:Work></rdf:RDF></metadata><defs
   id="defs11" /><sodipodi:namedview
   pagecolor="#ffffff"
   bordercolor="#666666"
   borderopacity="1"
   objecttolerance="10"
   gridtolerance="10"
   guidetolerance="10"
   inkscape:pageopacity="0"
   inkscape:pageshadow="2"
   inkscape:window-width="1841"
   inkscape:window-height="1727"
   id="namedview9"
   showgrid="false"
   inkscape:pagecheckerboard="true"
   inkscape:zoom="27.543134"
   inkscape:cx="21.409162"
   inkscape:cy="11.480582"
   inkscape:window-x="0"
   inkscape:window-y="27"
   inkscape:window-maximized="0"
   inkscape:current-layer="icon-s-installed" />
<g
   id="icon-s-installed">
	<rect
   id="icon-s-installed_1_"
   style="opacity:0;fill:#FFFFFF;"
   width="32"
   height="32" />
	<path
   style="opacity:0.4;fill:#FFFFFF;"
   d="M16,4.426C9.608,4.426,4.426,9.607,4.426,16c0,6.393,5.182,11.574,11.574,11.574   S27.574,22.393,27.574,16C27.574,9.607,22.392,4.426,16,4.426z"
   id="path3" />
	<path
   style="fill:#FFFFFF;"
   d="M15.611,17.738c-0.389,0.389-1.025,0.389-1.415,0l-3.164-3.163c-0.389-0.389-1.025-0.389-1.414,0   L8.62,15.574c-0.389,0.389-0.389,1.025,0,1.414l3.164,3.164c0.389,0.389,1.025,1.025,1.414,1.414l0.277,0.277   c0.765,0.766,1.935,0.924,2.885-0.026l0.25-0.25c0.389-0.389,1.025-1.025,1.414-1.414l6.075-6.075c0.389-0.389,0.389-1.025,0-1.414   l-0.999-1c-0.389-0.389-1.025-0.389-1.414,0L15.611,17.738z"
   id="path5" />
</g>
</svg>